<svg width="1080" height="1920" viewBox="0 0 1080 1920" fill="none" xmlns="http://www.w3.org/2000/svg">
<g id="template_root" clip-path="url(#clip_story_frame)">
<rect width="1080" height="1920" fill="#061510"/>
<rect id="header_background" x="70" y="163" width="509" height="140.148" rx="17" fill="white"/>
<rect id="footer_background" x="-49" y="1745" width="1171" height="228" fill="white"/>
<g id="footer_logo_group">
<path id="footer_logo_icon" fill-rule="evenodd" clip-rule="evenodd" d="M60.6533 1804.17L59.8472 1812.76C59.2678 1816.26 59.5831 1813.65 60.889 1816.29C61.6081 1817.75 61.7408 1818.88 62.1694 1820.46C60.2702 1823.31 61.0465 1820.07 60.4788 1823.48C59.8794 1827.08 60.0922 1825.39 58.6118 1827.01C56.9816 1828.81 56.7725 1829.75 56.6821 1830.43C59.9063 1829.84 58.847 1829.33 60.9632 1826.47C61.8238 1825.3 66.0616 1821.84 67.8857 1819.87C68.7474 1818.94 69.9703 1818.58 69.5551 1820.59C69.206 1822.27 66.5019 1823.89 66.3444 1826.21C70.1909 1825.86 76.6303 1824.09 80.6975 1822.87C81.7084 1822.56 81.8859 1822.34 82.6249 1822.71C83.8484 1824.51 80.0351 1825.27 78.4805 1825.86C76.8263 1826.48 73.7458 1827.3 73.111 1828.58C74.3339 1829.15 78.0567 1828.1 79.5667 1827.78C80.9441 1827.49 85.4817 1825.85 85.7789 1827.5C86.054 1829.02 81.8947 1829.51 80.4624 1829.89C78.842 1830.32 75.2142 1830.97 74.1384 1831.96C74.5321 1832.72 75.0456 1832.59 76.7915 1832.46L83.5445 1831.81C85.0779 1831.66 85.5541 1831.65 85.4857 1833.25C83.2431 1834.6 75.6569 1834.22 73.1945 1835.78C74.1033 1836.98 79.3028 1836.12 80.6124 1836.28C81.5041 1836.39 81.2575 1836.36 81.4701 1836.93C80.6914 1837.88 77.116 1837.97 75.6803 1838.15C72.4962 1838.56 66.5577 1839.16 63.529 1838.82C60.814 1838.51 61.1 1837.86 57.7677 1838.54L53.2607 1839.98C53.2729 1844.88 53.8069 1849.33 53 1855.2C64.7147 1854.86 67.9693 1853.01 73.1488 1861.99C78.9431 1872.03 74.3988 1872.97 88.4208 1871.33C97.0408 1870.33 102.26 1870.96 103.265 1861.06C103.301 1860.69 103.332 1860.39 103.363 1860.13L102.589 1858.35C100.781 1854.53 100.823 1855.96 97.2353 1854.66C95.8746 1854.16 91.3474 1851.08 88.9443 1849.89C87.8097 1849.32 87.1178 1848.25 89.1582 1848.08C90.8746 1847.94 93.1917 1850.08 95.4665 1849.57C94.0323 1845.98 90.5168 1840.3 88.188 1836.75C87.6097 1835.87 87.3466 1835.76 87.4871 1834.95C88.8669 1833.27 90.682 1836.71 91.6868 1838.03C92.7549 1839.44 94.4146 1842.16 95.8195 1842.41C96.0209 1841.07 93.9541 1837.8 93.222 1836.44C92.5538 1835.2 89.6961 1831.32 91.1901 1830.57C92.5708 1829.87 94.2199 1833.72 94.99 1834.99C95.8613 1836.42 97.5144 1839.71 98.7636 1840.47C99.3864 1839.87 99.1102 1839.42 98.4923 1837.78L95.9541 1831.49C95.3803 1830.06 95.2348 1829.6 96.7921 1829.22C98.7176 1830.98 100.502 1838.37 102.695 1840.29C103.594 1839.07 101.293 1834.33 101.078 1833.03C100.932 1832.14 100.967 1832.39 101.453 1832.03C102.589 1832.5 103.686 1835.91 104.269 1837.23C105.562 1840.17 107.824 1845.69 108.351 1848.69C108.799 1851.25 108.185 1851.3 109.494 1853.87C110.855 1852.56 110.358 1851.79 112.538 1850.88L117.985 1850.06C121.932 1854.72 123.065 1856.63 127.442 1848.13L131.761 1837.62L135.861 1831.74L138.146 1828.55L139.398 1825.05L141.083 1821.42L142.378 1817.98L143.459 1816.34C146.206 1813.44 149.543 1815.6 149.905 1810.97C150.158 1807.73 150.428 1806.01 146.197 1805.78C146.173 1800.14 142.914 1795.01 140.868 1794.73C137.574 1795.48 140.188 1794.99 138.359 1795.77C138.205 1795.84 138.03 1795.91 137.877 1795.98C133.157 1797.99 133.226 1799.62 131.446 1799.88C130.725 1799.98 118.263 1794.65 112.02 1799.7C110.293 1801.09 109.579 1801.98 108.129 1802.22L107.833 1802.64C105.54 1806.19 106.735 1805.4 107.511 1809.14C107.805 1810.55 107.566 1816.02 107.816 1818.7C107.934 1819.96 107.387 1821.11 106.169 1819.46C105.144 1818.08 105.742 1814.98 104.114 1813.32C101.817 1816.42 98.8381 1822.4 97.0408 1826.25C96.5939 1827.2 96.6413 1827.48 95.8767 1827.79C93.7187 1827.5 95.6897 1824.15 96.2885 1822.6C96.9248 1820.95 98.367 1818.11 97.8378 1816.78C96.5971 1817.31 94.9015 1820.79 94.1316 1822.13C93.4293 1823.35 91.6267 1827.82 90.201 1826.95C88.8842 1826.14 91.2915 1822.71 91.9624 1821.39C92.7224 1819.9 94.6549 1816.76 94.6381 1815.3C93.8046 1815.08 93.5641 1815.56 92.496 1816.94L88.4801 1822.41C87.5661 1823.65 87.2567 1824.01 86.1069 1822.89C86.5988 1820.32 91.9401 1814.92 92.4197 1812.05C90.9148 1811.92 88.0923 1816.37 87.0973 1817.24C86.4206 1817.83 86.6118 1817.67 86.0447 1817.45C85.8529 1816.23 88.171 1813.51 88.9917 1812.32C90.8105 1809.67 94.3191 1804.84 96.5958 1802.82C98.2369 1801.36 98.7487 1801.49 99.7758 1800.07C98.4949 1799.26 97.2076 1798.39 95.1026 1797.85C91.7411 1799.09 91.0792 1800.08 86.7733 1800.55C85.6525 1797.9 84.2192 1796.08 81.4879 1795.13C75.4576 1793.03 66.6556 1793.99 64.9512 1796.93C62.8336 1800.58 65.8283 1801.65 60.6544 1804.17L60.6533 1804.17Z" fill="#029968"/>
<path id="footer_logo_flag" d="M173.703 1863.66C174.519 1863.66 175.42 1863.34 176.406 1862.69C180.826 1859.47 184.494 1850.74 187.412 1836.5C188.571 1830.83 189.15 1826.93 189.15 1824.78C189.15 1824.35 189.129 1824.01 189.086 1823.75C188.485 1819.08 186.297 1816.74 182.521 1816.74C182.092 1816.74 181.63 1816.77 181.137 1816.84C180.644 1816.9 180.161 1817.1 179.689 1817.45C179.217 1817.79 178.166 1819.83 176.535 1823.56C174.905 1827.29 173.382 1832.06 171.965 1837.85C170.807 1842.61 170.228 1847.55 170.228 1852.65C170.313 1858.66 171.215 1862.26 172.931 1863.47C173.102 1863.59 173.36 1863.66 173.703 1863.66V1863.66ZM173.253 1867.33C170.893 1867.33 168.855 1866.4 167.138 1864.56C165.078 1862.37 164.049 1858.81 164.049 1853.88V1852.46C164.521 1838 168.296 1824.2 175.376 1811.07C176.363 1809.1 177.522 1808.03 178.852 1807.86C179.409 1807.86 179.882 1807.9 180.268 1807.99C182.928 1808.59 184.387 1809.83 184.644 1811.72C184.73 1812.88 184.859 1813.52 185.03 1813.65C185.202 1813.78 185.674 1813.97 186.446 1814.23C191.552 1816.55 194.105 1820.24 194.105 1825.3C194.105 1828.09 193.526 1832.46 192.368 1838.43C190.308 1849.41 186.94 1857.59 182.263 1862.95C179.732 1865.87 176.728 1867.33 173.252 1867.33H173.253ZM212.899 1863.46H211.998C210.754 1863.46 209.81 1863.23 209.167 1862.76C208.051 1861.94 207.45 1860.23 207.364 1857.61C207.321 1856.88 207.214 1856.36 207.043 1856.06C205.455 1857.87 204.511 1858.96 204.211 1859.35C202.967 1860.76 201.529 1861.51 199.899 1861.6L198.483 1861.66C197.539 1861.66 196.434 1861.19 195.168 1860.25C193.902 1859.3 193.269 1857.95 193.269 1856.19C193.269 1854.78 193.505 1852.33 193.977 1848.85C194.449 1845.38 195.286 1842.18 196.487 1839.26C197.474 1836.78 198.761 1835.49 200.349 1835.4C202.151 1835.7 203.074 1836.5 203.117 1837.78C203.117 1838.26 203.074 1838.66 202.988 1839.01C202.602 1840.34 202.001 1842.72 201.186 1846.15C200.113 1850.49 199.577 1853.34 199.577 1854.71C199.577 1855.23 199.662 1855.48 199.834 1855.48C200.692 1855.44 202.773 1852.74 206.077 1847.37C208.866 1842.83 210.819 1839.37 211.934 1837.01C212.535 1835.73 213.458 1835.06 214.702 1835.02C215.259 1835.02 215.839 1835.15 216.439 1835.4C217.77 1835.92 218.456 1836.76 218.499 1837.91C218.499 1838.47 218.413 1839.01 218.242 1839.52C215.367 1847.8 213.929 1854.07 213.929 1858.32C213.929 1859.43 214.026 1860.27 214.219 1860.83C214.412 1861.38 214.509 1861.88 214.509 1862.31C214.509 1862.39 214.498 1862.57 214.477 1862.85C214.455 1863.13 213.929 1863.34 212.9 1863.46H212.899ZM222.425 1861.79C221.181 1861.79 220.108 1861.38 219.207 1860.57C218.735 1860.1 218.499 1859.45 218.499 1858.64C219.486 1849.88 220.43 1842.66 221.331 1836.95C221.545 1835.75 222.188 1835.15 223.261 1835.15C225.879 1835.15 227.187 1836.33 227.187 1838.69C227.187 1839.11 227.08 1839.69 226.866 1840.42C226.608 1841.32 226.479 1842.14 226.479 1842.87C226.479 1843.51 226.565 1843.83 226.737 1843.83C226.866 1843.83 227.016 1843.66 227.188 1843.32C228.131 1841.26 229.891 1839.67 232.465 1838.56C233.281 1838.17 234.096 1837.98 234.911 1837.98C235.641 1837.98 236.241 1838.36 236.713 1839.14C236.97 1839.52 237.099 1839.87 237.099 1840.17C237.099 1840.68 236.606 1841.17 235.619 1841.65C235.362 1841.77 235.147 1841.9 234.975 1842.03C229.869 1845.94 226.522 1851.51 224.935 1858.77C224.463 1860.78 223.626 1861.79 222.425 1861.79V1861.79ZM252.674 1868.94H252.417C251.988 1868.94 251.537 1868.85 251.065 1868.68C249.135 1867.99 248.062 1866.9 247.847 1865.4C247.804 1865.14 247.783 1864 247.783 1861.98C247.783 1850.7 248.877 1839.5 251.065 1828.39C252.095 1820.84 254.97 1817.06 259.69 1817.06C262.093 1817.06 263.637 1818.43 264.324 1821.18L265.482 1828.58C266.47 1835.1 267.799 1841.67 269.473 1848.28C270.074 1850.42 270.524 1851.49 270.825 1851.49C271.168 1851.45 271.425 1850.49 271.597 1848.6C273.27 1838.81 275.759 1827.62 279.063 1815L279.449 1812.88C279.878 1809.44 281.165 1807.73 283.311 1807.73C285.756 1807.73 287.108 1808.59 287.365 1810.3C287.365 1810.95 287.215 1811.65 286.915 1812.43C285.756 1815.82 284.212 1820.96 282.281 1827.87C277.861 1843.49 275.651 1854.2 275.651 1859.99C275.651 1861.02 275.78 1862.11 276.037 1863.27C276.037 1863.96 275.683 1864.51 274.975 1864.91C274.267 1865.32 273.463 1865.53 272.562 1865.53C270.888 1865.53 269.644 1864.77 268.829 1863.27C264.409 1856.66 261.513 1848.53 260.14 1838.88C258.853 1830.34 258.08 1826.07 257.823 1826.07C257.651 1826.07 257.394 1826.67 257.051 1827.87C256.15 1830.66 255.184 1836.76 254.154 1846.15C253.511 1852.5 253.189 1857.24 253.189 1860.38C253.189 1861.66 253.232 1862.68 253.317 1863.43C253.403 1864.18 253.682 1864.88 254.154 1865.53C254.369 1865.78 254.605 1866.28 254.862 1867.01C254.862 1867.35 254.637 1867.73 254.187 1868.16C253.736 1868.59 253.232 1868.85 252.674 1868.94L252.674 1868.94ZM287.558 1863.53H287.365C285.177 1863.53 283.997 1862.05 283.826 1859.09C283.74 1857.63 283.697 1856.21 283.697 1854.84C283.697 1849.65 284.212 1844.84 285.242 1840.42C285.542 1839.18 286.357 1838.56 287.687 1838.56C290.004 1838.56 291.163 1839.48 291.163 1841.32C291.163 1841.84 291.12 1842.31 291.034 1842.74C289.961 1848.19 289.296 1853.72 289.039 1859.35C289.039 1859.82 289.093 1860.25 289.2 1860.63C289.307 1861.02 289.361 1861.43 289.361 1861.86C289.361 1862.2 289.329 1862.54 289.264 1862.89C289.2 1863.23 288.631 1863.44 287.558 1863.53H287.558ZM289.618 1837.59L288.717 1837.53C287.516 1837.27 286.872 1836.48 286.786 1835.15V1833.86C286.786 1832.31 287.473 1829.83 288.846 1826.39L289.168 1825.49C289.511 1824.68 290.155 1824.25 291.098 1824.2C291.527 1824.2 291.956 1824.29 292.386 1824.46C293.844 1825.11 294.595 1825.88 294.638 1826.78C294.638 1827.72 293.544 1830.9 291.356 1836.3C290.97 1837.16 290.391 1837.59 289.618 1837.59H289.618ZM301.396 1885.93C298.693 1885.93 296.076 1884.66 293.544 1882.13C292.643 1881.19 292.192 1880.13 292.192 1878.98C292.192 1877.56 292.814 1876.85 294.059 1876.85C294.788 1876.85 295.281 1877.28 295.539 1878.14C296.397 1880.97 298.156 1882.39 300.817 1882.39C301.761 1882.39 302.522 1882.05 303.102 1881.39C303.681 1880.72 304.228 1879.88 304.743 1878.85C307.017 1874.56 308.562 1870.18 309.377 1865.72C310.45 1859.92 310.986 1854.84 310.986 1850.46C310.986 1849.99 310.814 1849.76 310.471 1849.76C310.342 1849.76 310.128 1849.83 309.827 1849.98C309.527 1850.13 306.717 1853.27 301.396 1859.41C299.98 1861.04 298.457 1861.86 296.826 1861.86C295.754 1861.86 294.617 1861.49 293.415 1860.76C291.613 1859.65 290.712 1858.19 290.712 1856.39C290.712 1855.57 290.905 1854.67 291.291 1853.68C294.209 1845.79 298.521 1838.79 304.228 1832.7C305.558 1831.24 306.996 1830.51 308.54 1830.51C308.712 1830.51 309.259 1830.55 310.182 1830.64C311.104 1830.73 312.123 1831.63 313.239 1833.34C313.625 1833.9 313.818 1834.37 313.818 1834.76C313.818 1835.19 313.603 1835.57 313.174 1835.92C312.745 1836.26 312.338 1836.43 311.951 1836.43C311.522 1836.43 311.115 1836.19 310.729 1835.69C310.342 1835.2 309.999 1834.95 309.699 1834.95C309.355 1834.95 308.926 1835.25 308.411 1835.85C306.438 1838.09 304.164 1841.23 301.589 1845.28C299.015 1849.34 297.534 1852.78 297.148 1855.61C298.264 1854.88 299.809 1853.45 301.782 1851.3C303.756 1849.16 305.622 1846.92 307.382 1844.61C309.141 1842.29 310.278 1840.53 310.793 1839.33C311.093 1838.69 311.651 1838.36 312.466 1838.36C314.354 1838.36 315.62 1839.22 316.264 1840.94C316.736 1842.1 316.972 1844.46 316.972 1848.02C316.972 1860.63 314.719 1871.23 310.214 1879.81C308.025 1883.89 305.086 1885.93 301.396 1885.93L301.396 1885.93ZM324.953 1848.66C326.068 1847.89 327.141 1846.54 328.17 1844.61C329.715 1841.78 330.488 1840.02 330.488 1839.33C330.488 1838.99 330.273 1838.81 329.844 1838.81C329.544 1838.81 329.308 1838.92 329.136 1839.14C325.918 1844.63 324.309 1847.59 324.309 1848.02C324.309 1848.36 324.524 1848.58 324.953 1848.66ZM327.398 1862.18C320.876 1862.18 317.615 1859.15 317.615 1853.1C317.615 1852.55 317.733 1851.28 317.969 1849.31C318.205 1847.33 319.117 1844.76 320.705 1841.58C323.579 1835.92 326.647 1833.09 329.908 1833.09C332.569 1833.09 334.585 1834.42 335.958 1837.08C336.387 1837.89 336.602 1838.75 336.602 1839.65C336.602 1840.77 336.28 1841.93 335.636 1843.13C331.946 1848.58 328.471 1852.07 325.21 1853.62C324.052 1854.18 323.472 1854.75 323.472 1855.36C323.472 1855.61 323.515 1855.87 323.601 1856.13C323.987 1857.5 324.759 1858.19 325.918 1858.19C327.634 1858.19 329.93 1857.14 332.804 1855.03C334.692 1853.66 336.044 1852.61 336.859 1851.88C337.889 1850.85 338.704 1850.34 339.305 1850.34C339.605 1850.34 339.906 1850.44 340.206 1850.66C340.678 1851.09 340.914 1851.62 340.914 1852.27C340.914 1852.95 340.474 1853.96 339.595 1855.29C338.715 1856.62 337.278 1858.04 335.282 1859.54C333.287 1861.04 331.496 1861.88 329.908 1862.05C329.007 1862.13 328.17 1862.18 327.398 1862.18V1862.18ZM342.652 1861.79C341.408 1861.79 340.335 1861.38 339.434 1860.57C338.962 1860.1 338.726 1859.45 338.726 1858.64C339.713 1849.89 340.657 1842.66 341.558 1836.95C341.772 1835.75 342.416 1835.15 343.488 1835.15C346.106 1835.15 347.415 1836.33 347.415 1838.69C347.415 1839.12 347.307 1839.69 347.093 1840.42C346.835 1841.32 346.707 1842.14 346.707 1842.87C346.707 1843.51 346.793 1843.83 346.964 1843.83C347.093 1843.83 347.243 1843.66 347.415 1843.32C348.359 1841.26 350.118 1839.67 352.692 1838.56C353.508 1838.17 354.323 1837.98 355.138 1837.98C355.868 1837.98 356.468 1838.36 356.94 1839.14C357.198 1839.52 357.326 1839.87 357.326 1840.17C357.326 1840.68 356.833 1841.17 355.846 1841.65C355.589 1841.78 355.374 1841.9 355.202 1842.03C350.096 1845.94 346.749 1851.52 345.162 1858.77C344.69 1860.78 343.853 1861.79 342.652 1861.79V1861.79ZM357.326 1863.53H357.133C354.945 1863.53 353.765 1862.05 353.594 1859.09C353.508 1857.63 353.465 1856.21 353.465 1854.84C353.465 1849.65 353.98 1844.84 355.01 1840.42C355.31 1839.18 356.125 1838.56 357.455 1838.56C359.772 1838.56 360.931 1839.48 360.931 1841.32C360.931 1841.84 360.888 1842.31 360.802 1842.74C359.729 1848.19 359.064 1853.73 358.807 1859.35C358.807 1859.82 358.861 1860.25 358.968 1860.63C359.075 1861.02 359.129 1861.43 359.129 1861.86C359.129 1862.2 359.097 1862.54 359.032 1862.89C358.968 1863.23 358.399 1863.44 357.326 1863.53H357.326ZM359.386 1837.59L358.485 1837.53C357.284 1837.27 356.64 1836.48 356.554 1835.15V1833.86C356.554 1832.31 357.241 1829.83 358.614 1826.39L358.936 1825.49C359.279 1824.68 359.923 1824.25 360.866 1824.2C361.295 1824.2 361.724 1824.29 362.154 1824.46C363.612 1825.11 364.363 1825.88 364.406 1826.78C364.406 1827.72 363.312 1830.9 361.124 1836.3C360.738 1837.16 360.158 1837.59 359.386 1837.59H359.386ZM381.526 1860.18C381.183 1860.18 380.883 1860.14 380.625 1860.05C377.235 1858.98 375.541 1856.45 375.541 1852.46C375.541 1851.04 375.39 1850.34 375.09 1850.34C375.047 1850.34 373.996 1851.64 371.936 1854.26C370.778 1855.76 369.662 1857.13 368.59 1858.35C367.517 1859.57 366.423 1860.18 365.307 1860.18C364.449 1860.18 363.612 1859.95 362.797 1859.48C361.038 1858.49 360.158 1856.99 360.158 1854.97C360.158 1854.45 360.223 1853.92 360.351 1853.36C361.424 1848 363.999 1842.63 368.075 1837.27C369.748 1835.08 371.486 1833.99 373.288 1833.99C374.404 1833.99 375.412 1834.34 376.313 1835.05C377.214 1835.76 377.665 1836.37 377.665 1836.88C377.665 1837.4 377.579 1837.81 377.407 1838.11C376.935 1839.01 376.42 1839.46 375.863 1839.46C375.262 1839.46 374.79 1839.35 374.447 1839.14C374.103 1838.92 373.803 1838.79 373.546 1838.75C373.288 1838.75 372.945 1839.05 372.516 1839.65C370.671 1842.14 368.826 1845.87 366.981 1850.85C366.723 1851.49 366.595 1851.94 366.595 1852.2C366.595 1852.42 366.659 1852.52 366.788 1852.52C367.431 1852.52 369.277 1850.62 372.323 1846.8C376.185 1841.95 378.545 1839.39 379.403 1839.14C379.875 1839.01 380.283 1838.94 380.626 1838.94C380.969 1838.94 381.248 1838.99 381.462 1839.07C382.664 1839.72 383.264 1840.94 383.264 1842.74C383.264 1843.51 383.157 1844.31 382.943 1845.12C382.171 1848.26 381.785 1851 381.785 1853.36C381.785 1855.12 382.149 1856.82 382.878 1858.45C383.05 1858.79 383.136 1859.07 383.136 1859.28C383.136 1859.88 382.6 1860.18 381.527 1860.18L381.526 1860.18Z" fill="#061510"/>
</g>
<path id="footer_tagline" d="M615.654 1838V1824.35H617.307V1836.53H623.654V1838H615.654ZM630.295 1838.21C629.308 1838.21 628.457 1838 627.742 1837.56C627.03 1837.12 626.481 1836.51 626.095 1835.72C625.712 1834.93 625.521 1834.01 625.521 1832.96C625.521 1831.91 625.712 1830.99 626.095 1830.19C626.481 1829.38 627.019 1828.75 627.708 1828.31C628.402 1827.85 629.211 1827.63 630.135 1827.63C630.669 1827.63 631.195 1827.71 631.715 1827.89C632.235 1828.07 632.709 1828.36 633.136 1828.76C633.562 1829.15 633.902 1829.68 634.156 1830.33C634.409 1830.99 634.536 1831.79 634.536 1832.75V1833.41H626.641V1832.05H632.935C632.935 1831.47 632.82 1830.96 632.589 1830.51C632.362 1830.05 632.038 1829.69 631.615 1829.43C631.198 1829.17 630.704 1829.04 630.135 1829.04C629.508 1829.04 628.966 1829.19 628.508 1829.51C628.055 1829.81 627.706 1830.21 627.462 1830.71C627.217 1831.2 627.095 1831.73 627.095 1832.29V1833.2C627.095 1833.97 627.228 1834.63 627.495 1835.17C627.766 1835.7 628.142 1836.11 628.622 1836.39C629.102 1836.66 629.66 1836.8 630.295 1836.8C630.709 1836.8 631.082 1836.74 631.415 1836.63C631.753 1836.51 632.044 1836.33 632.289 1836.09C632.533 1835.85 632.722 1835.56 632.855 1835.2L634.376 1835.63C634.216 1836.14 633.947 1836.6 633.569 1836.99C633.191 1837.37 632.724 1837.68 632.169 1837.89C631.613 1838.11 630.989 1838.21 630.295 1838.21ZM641.383 1827.76V1829.09H636.076V1827.76H641.383ZM637.623 1825.31H639.196V1835.07C639.196 1835.51 639.261 1835.84 639.39 1836.07C639.523 1836.28 639.692 1836.43 639.896 1836.51C640.105 1836.58 640.325 1836.61 640.556 1836.61C640.73 1836.61 640.872 1836.6 640.983 1836.59C641.094 1836.56 641.183 1836.55 641.25 1836.53L641.57 1837.95C641.463 1837.99 641.314 1838.03 641.123 1838.07C640.932 1838.11 640.69 1838.13 640.396 1838.13C639.952 1838.13 639.516 1838.04 639.09 1837.85C638.667 1837.66 638.316 1837.36 638.036 1836.97C637.76 1836.58 637.623 1836.09 637.623 1835.49V1825.31ZM649.244 1838V1824.35H650.818V1829.39H650.951C651.066 1829.21 651.226 1828.98 651.431 1828.71C651.64 1828.43 651.938 1828.18 652.324 1827.96C652.716 1827.74 653.244 1827.63 653.911 1827.63C654.774 1827.63 655.534 1827.84 656.191 1828.27C656.849 1828.7 657.363 1829.31 657.732 1830.11C658.101 1830.9 658.285 1831.83 658.285 1832.91C658.285 1833.99 658.101 1834.93 657.732 1835.73C657.363 1836.52 656.852 1837.13 656.198 1837.57C655.545 1838 654.791 1838.21 653.938 1838.21C653.28 1838.21 652.753 1838.1 652.358 1837.89C651.962 1837.66 651.658 1837.41 651.444 1837.13C651.231 1836.85 651.066 1836.61 650.951 1836.43H650.764V1838H649.244ZM650.791 1832.88C650.791 1833.65 650.904 1834.34 651.131 1834.93C651.358 1835.51 651.689 1835.97 652.124 1836.31C652.56 1836.64 653.093 1836.8 653.725 1836.8C654.382 1836.8 654.931 1836.63 655.371 1836.28C655.816 1835.93 656.149 1835.46 656.371 1834.87C656.598 1834.27 656.712 1833.61 656.712 1832.88C656.712 1832.16 656.6 1831.51 656.378 1830.93C656.16 1830.35 655.829 1829.89 655.385 1829.55C654.945 1829.21 654.391 1829.04 653.725 1829.04C653.084 1829.04 652.547 1829.2 652.111 1829.53C651.675 1829.85 651.346 1830.29 651.124 1830.87C650.902 1831.45 650.791 1832.11 650.791 1832.88ZM667.146 1833.81V1827.76H668.72V1838H667.146V1836.27H667.039C666.799 1836.79 666.426 1837.23 665.919 1837.59C665.413 1837.95 664.772 1838.13 663.999 1838.13C663.359 1838.13 662.79 1837.99 662.292 1837.71C661.794 1837.43 661.403 1837 661.119 1836.43C660.834 1835.86 660.692 1835.14 660.692 1834.27V1827.76H662.266V1834.16C662.266 1834.91 662.474 1835.5 662.892 1835.95C663.315 1836.39 663.852 1836.61 664.506 1836.61C664.897 1836.61 665.295 1836.51 665.699 1836.31C666.108 1836.11 666.45 1835.81 666.726 1835.39C667.006 1834.98 667.146 1834.45 667.146 1833.81ZM671.602 1838V1827.76H673.175V1838H671.602ZM672.402 1826.05C672.095 1826.05 671.83 1825.95 671.608 1825.74C671.39 1825.53 671.282 1825.28 671.282 1824.99C671.282 1824.69 671.39 1824.44 671.608 1824.23C671.83 1824.02 672.095 1823.92 672.402 1823.92C672.708 1823.92 672.971 1824.02 673.188 1824.23C673.411 1824.44 673.522 1824.69 673.522 1824.99C673.522 1825.28 673.411 1825.53 673.188 1825.74C672.971 1825.95 672.708 1826.05 672.402 1826.05ZM677.631 1824.35V1838H676.057V1824.35H677.631ZM684.38 1838.21C683.526 1838.21 682.773 1838 682.119 1837.57C681.466 1837.13 680.955 1836.52 680.586 1835.73C680.217 1834.93 680.033 1833.99 680.033 1832.91C680.033 1831.83 680.217 1830.9 680.586 1830.11C680.955 1829.31 681.468 1828.7 682.126 1828.27C682.784 1827.84 683.544 1827.63 684.406 1827.63C685.073 1827.63 685.6 1827.74 685.987 1827.96C686.378 1828.18 686.675 1828.43 686.88 1828.71C687.089 1828.98 687.251 1829.21 687.367 1829.39H687.5V1824.35H689.074V1838H687.553V1836.43H687.367C687.251 1836.61 687.087 1836.85 686.873 1837.13C686.66 1837.41 686.355 1837.66 685.96 1837.89C685.564 1838.1 685.038 1838.21 684.38 1838.21ZM684.593 1836.8C685.224 1836.8 685.758 1836.64 686.193 1836.31C686.629 1835.97 686.96 1835.51 687.187 1834.93C687.413 1834.34 687.527 1833.65 687.527 1832.88C687.527 1832.11 687.416 1831.45 687.193 1830.87C686.971 1830.29 686.642 1829.85 686.207 1829.53C685.771 1829.2 685.233 1829.04 684.593 1829.04C683.926 1829.04 683.371 1829.21 682.926 1829.55C682.486 1829.89 682.155 1830.35 681.933 1830.93C681.715 1831.51 681.606 1832.16 681.606 1832.88C681.606 1833.61 681.717 1834.27 681.939 1834.87C682.166 1835.46 682.499 1835.93 682.94 1836.28C683.384 1836.63 683.935 1836.8 684.593 1836.8ZM701.908 1827.76V1829.09H696.601V1827.76H701.908ZM698.148 1825.31H699.721V1835.07C699.721 1835.51 699.786 1835.84 699.915 1836.07C700.048 1836.28 700.217 1836.43 700.422 1836.51C700.63 1836.58 700.85 1836.61 701.082 1836.61C701.255 1836.61 701.397 1836.6 701.508 1836.59C701.619 1836.56 701.708 1836.55 701.775 1836.53L702.095 1837.95C701.988 1837.99 701.839 1838.03 701.648 1838.07C701.457 1838.11 701.215 1838.13 700.922 1838.13C700.477 1838.13 700.041 1838.04 699.615 1837.85C699.192 1837.66 698.841 1837.36 698.561 1836.97C698.286 1836.58 698.148 1836.09 698.148 1835.49V1825.31ZM706.069 1831.84V1838H704.495V1824.35H706.069V1829.36H706.202C706.442 1828.83 706.802 1828.41 707.282 1828.1C707.767 1827.78 708.411 1827.63 709.216 1827.63C709.914 1827.63 710.525 1827.77 711.049 1828.05C711.574 1828.32 711.981 1828.75 712.27 1829.32C712.563 1829.89 712.71 1830.61 712.71 1831.49V1838H711.136V1831.6C711.136 1830.79 710.925 1830.16 710.503 1829.71C710.085 1829.26 709.505 1829.04 708.762 1829.04C708.247 1829.04 707.785 1829.15 707.376 1829.37C706.971 1829.58 706.651 1829.9 706.416 1830.32C706.184 1830.74 706.069 1831.24 706.069 1831.84ZM719.882 1838.21C718.895 1838.21 718.044 1838 717.328 1837.56C716.617 1837.12 716.068 1836.51 715.682 1835.72C715.299 1834.93 715.108 1834.01 715.108 1832.96C715.108 1831.91 715.299 1830.99 715.682 1830.19C716.068 1829.38 716.606 1828.75 717.295 1828.31C717.989 1827.85 718.797 1827.63 719.722 1827.63C720.255 1827.63 720.782 1827.71 721.302 1827.89C721.822 1828.07 722.296 1828.36 722.722 1828.76C723.149 1829.15 723.489 1829.68 723.743 1830.33C723.996 1830.99 724.123 1831.79 724.123 1832.75V1833.41H716.228V1832.05H722.522C722.522 1831.47 722.407 1830.96 722.176 1830.51C721.949 1830.05 721.624 1829.69 721.202 1829.43C720.784 1829.17 720.291 1829.04 719.722 1829.04C719.095 1829.04 718.553 1829.19 718.095 1829.51C717.642 1829.81 717.293 1830.21 717.048 1830.71C716.804 1831.2 716.682 1831.73 716.682 1832.29V1833.2C716.682 1833.97 716.815 1834.63 717.082 1835.17C717.353 1835.7 717.728 1836.11 718.209 1836.39C718.689 1836.66 719.246 1836.8 719.882 1836.8C720.295 1836.8 720.669 1836.74 721.002 1836.63C721.34 1836.51 721.631 1836.33 721.876 1836.09C722.12 1835.85 722.309 1835.56 722.442 1835.2L723.963 1835.63C723.803 1836.14 723.534 1836.6 723.156 1836.99C722.778 1837.37 722.311 1837.68 721.756 1837.89C721.2 1838.11 720.575 1838.21 719.882 1838.21ZM742.838 1824.35V1838H741.238L733.797 1827.28H733.664V1838H732.01V1824.35H733.61L741.078 1835.09H741.211V1824.35H742.838ZM745.933 1838V1827.76H747.507V1838H745.933ZM746.733 1826.05C746.427 1826.05 746.162 1825.95 745.94 1825.74C745.722 1825.53 745.613 1825.28 745.613 1824.99C745.613 1824.69 745.722 1824.44 745.94 1824.23C746.162 1824.02 746.427 1823.92 746.733 1823.92C747.04 1823.92 747.302 1824.02 747.52 1824.23C747.742 1824.44 747.854 1824.69 747.854 1824.99C747.854 1825.28 747.742 1825.53 747.52 1825.74C747.302 1825.95 747.04 1826.05 746.733 1826.05ZM754.523 1842.05C753.763 1842.05 753.109 1841.96 752.562 1841.76C752.016 1841.57 751.56 1841.32 751.196 1841C750.836 1840.69 750.549 1840.36 750.336 1840L751.589 1839.12C751.731 1839.31 751.911 1839.52 752.129 1839.76C752.347 1840 752.645 1840.22 753.023 1840.39C753.405 1840.58 753.905 1840.67 754.523 1840.67C755.349 1840.67 756.032 1840.47 756.57 1840.07C757.107 1839.67 757.376 1839.04 757.376 1838.19V1836.11H757.243C757.127 1836.29 756.963 1836.52 756.75 1836.8C756.541 1837.07 756.238 1837.31 755.843 1837.53C755.452 1837.74 754.923 1837.84 754.256 1837.84C753.429 1837.84 752.687 1837.64 752.029 1837.25C751.376 1836.86 750.858 1836.29 750.476 1835.55C750.098 1834.8 749.909 1833.89 749.909 1832.83C749.909 1831.78 750.093 1830.86 750.462 1830.09C750.831 1829.3 751.345 1828.7 752.002 1828.27C752.66 1827.84 753.42 1827.63 754.283 1827.63C754.949 1827.63 755.478 1827.74 755.87 1827.96C756.265 1828.18 756.567 1828.43 756.776 1828.71C756.99 1828.98 757.154 1829.21 757.27 1829.39H757.43V1827.76H758.95V1838.29C758.95 1839.17 758.75 1839.89 758.35 1840.44C757.954 1841 757.421 1841.4 756.75 1841.66C756.083 1841.92 755.341 1842.05 754.523 1842.05ZM754.469 1836.43C755.101 1836.43 755.634 1836.28 756.07 1835.99C756.505 1835.7 756.836 1835.29 757.063 1834.75C757.29 1834.2 757.403 1833.56 757.403 1832.8C757.403 1832.06 757.292 1831.41 757.07 1830.85C756.847 1830.28 756.518 1829.84 756.083 1829.52C755.647 1829.2 755.109 1829.04 754.469 1829.04C753.803 1829.04 753.247 1829.21 752.802 1829.55C752.362 1829.88 752.031 1830.34 751.809 1830.91C751.591 1831.47 751.482 1832.11 751.482 1832.8C751.482 1833.51 751.593 1834.14 751.816 1834.69C752.042 1835.23 752.376 1835.66 752.816 1835.97C753.26 1836.27 753.811 1836.43 754.469 1836.43ZM766.124 1838.21C765.137 1838.21 764.286 1838 763.57 1837.56C762.859 1837.12 762.31 1836.51 761.924 1835.72C761.541 1834.93 761.35 1834.01 761.35 1832.96C761.35 1831.91 761.541 1830.99 761.924 1830.19C762.31 1829.38 762.848 1828.75 763.537 1828.31C764.23 1827.85 765.039 1827.63 765.964 1827.63C766.497 1827.63 767.024 1827.71 767.544 1827.89C768.064 1828.07 768.538 1828.36 768.964 1828.76C769.391 1829.15 769.731 1829.68 769.984 1830.33C770.238 1830.99 770.364 1831.79 770.364 1832.75V1833.41H762.47V1832.05H768.764C768.764 1831.47 768.649 1830.96 768.418 1830.51C768.191 1830.05 767.866 1829.69 767.444 1829.43C767.026 1829.17 766.533 1829.04 765.964 1829.04C765.337 1829.04 764.795 1829.19 764.337 1829.51C763.884 1829.81 763.535 1830.21 763.29 1830.71C763.046 1831.2 762.924 1831.73 762.924 1832.29V1833.2C762.924 1833.97 763.057 1834.63 763.324 1835.17C763.595 1835.7 763.97 1836.11 764.45 1836.39C764.931 1836.66 765.488 1836.8 766.124 1836.8C766.537 1836.8 766.911 1836.74 767.244 1836.63C767.582 1836.51 767.873 1836.33 768.118 1836.09C768.362 1835.85 768.551 1835.56 768.684 1835.2L770.204 1835.63C770.044 1836.14 769.776 1836.6 769.398 1836.99C769.02 1837.37 768.553 1837.68 767.998 1837.89C767.442 1838.11 766.817 1838.21 766.124 1838.21ZM772.758 1838V1827.76H774.278V1829.31H774.385C774.572 1828.8 774.909 1828.39 775.398 1828.07C775.887 1827.76 776.439 1827.6 777.052 1827.6C777.167 1827.6 777.312 1827.6 777.485 1827.61C777.659 1827.61 777.79 1827.62 777.879 1827.63V1829.23C777.825 1829.21 777.703 1829.19 777.512 1829.17C777.325 1829.13 777.127 1829.12 776.919 1829.12C776.421 1829.12 775.976 1829.22 775.585 1829.43C775.198 1829.64 774.892 1829.92 774.665 1830.29C774.443 1830.65 774.332 1831.06 774.332 1831.52V1838H772.758ZM779.744 1838V1827.76H781.317V1838H779.744ZM780.544 1826.05C780.237 1826.05 779.973 1825.95 779.751 1825.74C779.533 1825.53 779.424 1825.28 779.424 1824.99C779.424 1824.69 779.533 1824.44 779.751 1824.23C779.973 1824.02 780.237 1823.92 780.544 1823.92C780.851 1823.92 781.113 1824.02 781.331 1824.23C781.553 1824.44 781.664 1824.69 781.664 1824.99C781.664 1825.28 781.553 1825.53 781.331 1825.74C781.113 1825.95 780.851 1826.05 780.544 1826.05ZM787.213 1838.24C786.564 1838.24 785.975 1838.12 785.446 1837.87C784.917 1837.62 784.497 1837.27 784.186 1836.8C783.875 1836.33 783.719 1835.76 783.719 1835.09C783.719 1834.51 783.835 1834.03 784.066 1833.67C784.297 1833.3 784.606 1833.01 784.993 1832.8C785.38 1832.59 785.806 1832.43 786.273 1832.33C786.744 1832.23 787.218 1832.14 787.693 1832.08C788.315 1832 788.82 1831.94 789.207 1831.9C789.598 1831.85 789.882 1831.78 790.06 1831.68C790.242 1831.58 790.333 1831.4 790.333 1831.15V1831.09C790.333 1830.43 790.153 1829.92 789.793 1829.56C789.438 1829.19 788.898 1829.01 788.173 1829.01C787.422 1829.01 786.833 1829.18 786.406 1829.51C785.98 1829.83 785.68 1830.19 785.506 1830.56L784.013 1830.03C784.279 1829.4 784.635 1828.92 785.079 1828.57C785.528 1828.22 786.017 1827.98 786.546 1827.84C787.08 1827.7 787.604 1827.63 788.12 1827.63C788.449 1827.63 788.827 1827.67 789.253 1827.75C789.684 1827.82 790.1 1827.98 790.5 1828.22C790.905 1828.46 791.24 1828.82 791.507 1829.31C791.774 1829.79 791.907 1830.44 791.907 1831.25V1838H790.333V1836.61H790.253C790.147 1836.84 789.969 1837.07 789.72 1837.33C789.471 1837.58 789.14 1837.8 788.727 1837.97C788.313 1838.15 787.809 1838.24 787.213 1838.24ZM787.453 1836.83C788.075 1836.83 788.6 1836.7 789.027 1836.46C789.458 1836.22 789.782 1835.9 790 1835.51C790.222 1835.13 790.333 1834.72 790.333 1834.29V1832.85C790.267 1832.93 790.12 1833.01 789.893 1833.07C789.671 1833.14 789.413 1833.19 789.12 1833.24C788.831 1833.28 788.549 1833.32 788.273 1833.36C788.002 1833.39 787.782 1833.42 787.613 1833.44C787.204 1833.49 786.822 1833.58 786.466 1833.7C786.115 1833.82 785.831 1833.99 785.613 1834.23C785.4 1834.46 785.293 1834.77 785.293 1835.17C785.293 1835.72 785.495 1836.13 785.9 1836.41C786.309 1836.69 786.826 1836.83 787.453 1836.83ZM804.22 1838.21C803.295 1838.21 802.484 1837.99 801.786 1837.55C801.093 1837.11 800.551 1836.5 800.16 1835.71C799.773 1834.92 799.579 1833.99 799.579 1832.93C799.579 1831.87 799.773 1830.93 800.16 1830.14C800.551 1829.34 801.093 1828.73 801.786 1828.29C802.484 1827.85 803.295 1827.63 804.22 1827.63C805.145 1827.63 805.954 1827.85 806.647 1828.29C807.345 1828.73 807.887 1829.34 808.274 1830.14C808.665 1830.93 808.861 1831.87 808.861 1832.93C808.861 1833.99 808.665 1834.92 808.274 1835.71C807.887 1836.5 807.345 1837.11 806.647 1837.55C805.954 1837.99 805.145 1838.21 804.22 1838.21ZM804.22 1836.8C804.922 1836.8 805.5 1836.62 805.954 1836.26C806.407 1835.9 806.743 1835.43 806.96 1834.84C807.178 1834.25 807.287 1833.62 807.287 1832.93C807.287 1832.25 807.178 1831.61 806.96 1831.02C806.743 1830.43 806.407 1829.95 805.954 1829.59C805.5 1829.22 804.922 1829.04 804.22 1829.04C803.518 1829.04 802.94 1829.22 802.486 1829.59C802.033 1829.95 801.697 1830.43 801.48 1831.02C801.262 1831.61 801.153 1832.25 801.153 1832.93C801.153 1833.62 801.262 1834.25 801.48 1834.84C801.697 1835.43 802.033 1835.9 802.486 1836.26C802.94 1836.62 803.518 1836.8 804.22 1836.8ZM815.823 1827.76V1829.09H810.302V1827.76H815.823ZM811.956 1838V1826.35C811.956 1825.76 812.094 1825.27 812.369 1824.88C812.645 1824.49 813.003 1824.19 813.443 1824C813.883 1823.8 814.347 1823.71 814.836 1823.71C815.223 1823.71 815.539 1823.74 815.783 1823.8C816.027 1823.86 816.21 1823.92 816.33 1823.97L815.876 1825.33C815.796 1825.31 815.685 1825.27 815.543 1825.23C815.405 1825.19 815.223 1825.17 814.996 1825.17C814.476 1825.17 814.101 1825.3 813.869 1825.57C813.643 1825.83 813.529 1826.21 813.529 1826.72V1838H811.956ZM827.469 1838.21C826.545 1838.21 825.734 1837.99 825.036 1837.55C824.342 1837.11 823.8 1836.5 823.409 1835.71C823.022 1834.92 822.829 1833.99 822.829 1832.93C822.829 1831.87 823.022 1830.93 823.409 1830.14C823.8 1829.34 824.342 1828.73 825.036 1828.29C825.734 1827.85 826.545 1827.63 827.469 1827.63C828.394 1827.63 829.203 1827.85 829.896 1828.29C830.594 1828.73 831.136 1829.34 831.523 1830.14C831.914 1830.93 832.11 1831.87 832.11 1832.93C832.11 1833.99 831.914 1834.92 831.523 1835.71C831.136 1836.5 830.594 1837.11 829.896 1837.55C829.203 1837.99 828.394 1838.21 827.469 1838.21ZM827.469 1836.8C828.172 1836.8 828.749 1836.62 829.203 1836.26C829.656 1835.9 829.992 1835.43 830.21 1834.84C830.427 1834.25 830.536 1833.62 830.536 1832.93C830.536 1832.25 830.427 1831.61 830.21 1831.02C829.992 1830.43 829.656 1829.95 829.203 1829.59C828.749 1829.22 828.172 1829.04 827.469 1829.04C826.767 1829.04 826.189 1829.22 825.736 1829.59C825.282 1829.95 824.947 1830.43 824.729 1831.02C824.511 1831.61 824.402 1832.25 824.402 1832.93C824.402 1833.62 824.511 1834.25 824.729 1834.84C824.947 1835.43 825.282 1835.9 825.736 1836.26C826.189 1836.62 826.767 1836.8 827.469 1836.8ZM840.966 1833.81V1827.76H842.539V1838H840.966V1836.27H840.859C840.619 1836.79 840.246 1837.23 839.739 1837.59C839.232 1837.95 838.592 1838.13 837.819 1838.13C837.179 1838.13 836.61 1837.99 836.112 1837.71C835.614 1837.43 835.223 1837 834.939 1836.43C834.654 1835.86 834.512 1835.14 834.512 1834.27V1827.76H836.085V1834.16C836.085 1834.91 836.294 1835.5 836.712 1835.95C837.134 1836.39 837.672 1836.61 838.326 1836.61C838.717 1836.61 839.115 1836.51 839.519 1836.31C839.928 1836.11 840.27 1835.81 840.546 1835.39C840.826 1834.98 840.966 1834.45 840.966 1833.81ZM845.421 1838V1827.76H846.942V1829.31H847.048C847.235 1828.8 847.573 1828.39 848.062 1828.07C848.551 1827.76 849.102 1827.6 849.715 1827.6C849.831 1827.6 849.975 1827.6 850.149 1827.61C850.322 1827.61 850.453 1827.62 850.542 1827.63V1829.23C850.489 1829.21 850.366 1829.19 850.175 1829.17C849.989 1829.13 849.791 1829.12 849.582 1829.12C849.084 1829.12 848.64 1829.22 848.248 1829.43C847.862 1829.64 847.555 1829.92 847.328 1830.29C847.106 1830.65 846.995 1831.06 846.995 1831.52V1838H845.421ZM861.555 1838.21C860.701 1838.21 859.948 1838 859.295 1837.57C858.641 1837.13 858.13 1836.52 857.761 1835.73C857.392 1834.93 857.208 1833.99 857.208 1832.91C857.208 1831.83 857.392 1830.9 857.761 1830.11C858.13 1829.31 858.643 1828.7 859.301 1828.27C859.959 1827.84 860.719 1827.63 861.582 1827.63C862.248 1827.63 862.775 1827.74 863.162 1827.96C863.553 1828.18 863.851 1828.43 864.055 1828.71C864.264 1828.98 864.426 1829.21 864.542 1829.39H864.675V1824.35H866.249V1838H864.729V1836.43H864.542C864.426 1836.61 864.262 1836.85 864.048 1837.13C863.835 1837.41 863.531 1837.66 863.135 1837.89C862.739 1838.1 862.213 1838.21 861.555 1838.21ZM861.768 1836.8C862.399 1836.8 862.933 1836.64 863.368 1836.31C863.804 1835.97 864.135 1835.51 864.362 1834.93C864.589 1834.34 864.702 1833.65 864.702 1832.88C864.702 1832.11 864.591 1831.45 864.369 1830.87C864.146 1830.29 863.817 1829.85 863.382 1829.53C862.946 1829.2 862.408 1829.04 861.768 1829.04C861.101 1829.04 860.546 1829.21 860.101 1829.55C859.661 1829.89 859.33 1830.35 859.108 1830.93C858.89 1831.51 858.781 1832.16 858.781 1832.88C858.781 1833.61 858.892 1834.27 859.115 1834.87C859.341 1835.46 859.675 1835.93 860.115 1836.28C860.559 1836.63 861.11 1836.8 861.768 1836.8ZM869.349 1838V1827.76H870.869V1829.31H870.976C871.163 1828.8 871.5 1828.39 871.989 1828.07C872.478 1827.76 873.03 1827.6 873.643 1827.6C873.758 1827.6 873.903 1827.6 874.076 1827.61C874.25 1827.61 874.381 1827.62 874.47 1827.63V1829.23C874.416 1829.21 874.294 1829.19 874.103 1829.17C873.916 1829.13 873.718 1829.12 873.51 1829.12C873.012 1829.12 872.567 1829.22 872.176 1829.43C871.789 1829.64 871.483 1829.92 871.256 1830.29C871.034 1830.65 870.923 1831.06 870.923 1831.52V1838H869.349ZM880.317 1838.21C879.33 1838.21 878.479 1838 877.763 1837.56C877.052 1837.12 876.503 1836.51 876.117 1835.72C875.734 1834.93 875.543 1834.01 875.543 1832.96C875.543 1831.91 875.734 1830.99 876.117 1830.19C876.503 1829.38 877.041 1828.75 877.73 1828.31C878.423 1827.85 879.232 1827.63 880.157 1827.63C880.69 1827.63 881.217 1827.71 881.737 1827.89C882.257 1828.07 882.731 1828.36 883.157 1828.76C883.584 1829.15 883.924 1829.68 884.177 1830.33C884.431 1830.99 884.557 1831.79 884.557 1832.75V1833.41H876.663V1832.05H882.957C882.957 1831.47 882.842 1830.96 882.611 1830.51C882.384 1830.05 882.059 1829.69 881.637 1829.43C881.219 1829.17 880.726 1829.04 880.157 1829.04C879.53 1829.04 878.988 1829.19 878.53 1829.51C878.077 1829.81 877.728 1830.21 877.483 1830.71C877.239 1831.2 877.117 1831.73 877.117 1832.29V1833.2C877.117 1833.97 877.25 1834.63 877.517 1835.17C877.788 1835.7 878.163 1836.11 878.643 1836.39C879.124 1836.66 879.681 1836.8 880.317 1836.8C880.73 1836.8 881.104 1836.74 881.437 1836.63C881.775 1836.51 882.066 1836.33 882.311 1836.09C882.555 1835.85 882.744 1835.56 882.877 1835.2L884.397 1835.63C884.237 1836.14 883.969 1836.6 883.591 1836.99C883.213 1837.37 882.746 1837.68 882.191 1837.89C881.635 1838.11 881.01 1838.21 880.317 1838.21ZM889.965 1838.24C889.316 1838.24 888.727 1838.12 888.198 1837.87C887.669 1837.62 887.249 1837.27 886.938 1836.8C886.627 1836.33 886.471 1835.76 886.471 1835.09C886.471 1834.51 886.587 1834.03 886.818 1833.67C887.049 1833.3 887.358 1833.01 887.745 1832.8C888.131 1832.59 888.558 1832.43 889.025 1832.33C889.496 1832.23 889.969 1832.14 890.445 1832.08C891.067 1832 891.572 1831.94 891.958 1831.9C892.349 1831.85 892.634 1831.78 892.812 1831.68C892.994 1831.58 893.085 1831.4 893.085 1831.15V1831.09C893.085 1830.43 892.905 1829.92 892.545 1829.56C892.189 1829.19 891.649 1829.01 890.925 1829.01C890.174 1829.01 889.585 1829.18 889.158 1829.51C888.731 1829.83 888.431 1830.19 888.258 1830.56L886.764 1830.03C887.031 1829.4 887.387 1828.92 887.831 1828.57C888.28 1828.22 888.769 1827.98 889.298 1827.84C889.831 1827.7 890.356 1827.63 890.872 1827.63C891.2 1827.63 891.578 1827.67 892.005 1827.75C892.436 1827.82 892.852 1827.98 893.252 1828.22C893.656 1828.46 893.992 1828.82 894.259 1829.31C894.525 1829.79 894.659 1830.44 894.659 1831.25V1838H893.085V1836.61H893.005C892.898 1836.84 892.721 1837.07 892.472 1837.33C892.223 1837.58 891.892 1837.8 891.478 1837.97C891.065 1838.15 890.56 1838.24 889.965 1838.24ZM890.205 1836.83C890.827 1836.83 891.352 1836.7 891.778 1836.46C892.209 1836.22 892.534 1835.9 892.752 1835.51C892.974 1835.13 893.085 1834.72 893.085 1834.29V1832.85C893.018 1832.93 892.872 1833.01 892.645 1833.07C892.423 1833.14 892.165 1833.19 891.872 1833.24C891.583 1833.28 891.3 1833.32 891.025 1833.36C890.754 1833.39 890.534 1833.42 890.365 1833.44C889.956 1833.49 889.574 1833.58 889.218 1833.7C888.867 1833.82 888.582 1833.99 888.365 1834.23C888.151 1834.46 888.045 1834.77 888.045 1835.17C888.045 1835.72 888.247 1836.13 888.651 1836.41C889.06 1836.69 889.578 1836.83 890.205 1836.83ZM897.531 1838V1827.76H899.051V1829.36H899.184C899.398 1828.81 899.742 1828.39 900.218 1828.09C900.693 1827.78 901.264 1827.63 901.931 1827.63C902.607 1827.63 903.169 1827.78 903.618 1828.09C904.071 1828.39 904.425 1828.81 904.678 1829.36H904.785C905.047 1828.83 905.44 1828.41 905.965 1828.1C906.489 1827.78 907.118 1827.63 907.852 1827.63C908.767 1827.63 909.516 1827.91 910.099 1828.49C910.681 1829.05 910.972 1829.94 910.972 1831.15V1838H909.399V1831.15C909.399 1830.39 909.192 1829.85 908.779 1829.53C908.365 1829.2 907.878 1829.04 907.318 1829.04C906.598 1829.04 906.041 1829.26 905.645 1829.69C905.249 1830.12 905.052 1830.67 905.052 1831.33V1838H903.451V1830.99C903.451 1830.4 903.262 1829.93 902.885 1829.58C902.507 1829.22 902.02 1829.04 901.424 1829.04C901.015 1829.04 900.633 1829.15 900.278 1829.37C899.926 1829.58 899.642 1829.89 899.424 1830.27C899.211 1830.65 899.104 1831.1 899.104 1831.6V1838H897.531ZM923.584 1827.76V1829.09H918.276V1827.76H923.584ZM919.823 1825.31H921.397V1835.07C921.397 1835.51 921.461 1835.84 921.59 1836.07C921.723 1836.28 921.892 1836.43 922.097 1836.51C922.306 1836.58 922.526 1836.61 922.757 1836.61C922.93 1836.61 923.072 1836.6 923.184 1836.59C923.295 1836.56 923.384 1836.55 923.45 1836.53L923.77 1837.95C923.664 1837.99 923.515 1838.03 923.324 1838.07C923.132 1838.11 922.89 1838.13 922.597 1838.13C922.152 1838.13 921.717 1838.04 921.29 1837.85C920.868 1837.66 920.517 1837.36 920.237 1836.97C919.961 1836.58 919.823 1836.09 919.823 1835.49V1825.31ZM927.744 1831.84V1838H926.171V1824.35H927.744V1829.36H927.877C928.117 1828.83 928.478 1828.41 928.958 1828.1C929.442 1827.78 930.087 1827.63 930.891 1827.63C931.589 1827.63 932.2 1827.77 932.725 1828.05C933.249 1828.32 933.656 1828.75 933.945 1829.32C934.238 1829.89 934.385 1830.61 934.385 1831.49V1838H932.811V1831.6C932.811 1830.79 932.6 1830.16 932.178 1829.71C931.76 1829.26 931.18 1829.04 930.438 1829.04C929.922 1829.04 929.46 1829.15 929.051 1829.37C928.646 1829.58 928.326 1829.9 928.091 1830.32C927.86 1830.74 927.744 1831.24 927.744 1831.84ZM937.263 1838V1827.76H938.784V1829.31H938.89C939.077 1828.8 939.415 1828.39 939.904 1828.07C940.393 1827.76 940.944 1827.6 941.557 1827.6C941.673 1827.6 941.817 1827.6 941.991 1827.61C942.164 1827.61 942.295 1827.62 942.384 1827.63V1829.23C942.331 1829.21 942.209 1829.19 942.017 1829.17C941.831 1829.13 941.633 1829.12 941.424 1829.12C940.926 1829.12 940.482 1829.22 940.09 1829.43C939.704 1829.64 939.397 1829.92 939.17 1830.29C938.948 1830.65 938.837 1831.06 938.837 1831.52V1838H937.263ZM948.098 1838.21C947.174 1838.21 946.362 1837.99 945.664 1837.55C944.971 1837.11 944.429 1836.5 944.038 1835.71C943.651 1834.92 943.458 1833.99 943.458 1832.93C943.458 1831.87 943.651 1830.93 944.038 1830.14C944.429 1829.34 944.971 1828.73 945.664 1828.29C946.362 1827.85 947.174 1827.63 948.098 1827.63C949.023 1827.63 949.832 1827.85 950.525 1828.29C951.223 1828.73 951.765 1829.34 952.152 1830.14C952.543 1830.93 952.739 1831.87 952.739 1832.93C952.739 1833.99 952.543 1834.92 952.152 1835.71C951.765 1836.5 951.223 1837.11 950.525 1837.55C949.832 1837.99 949.023 1838.21 948.098 1838.21ZM948.098 1836.8C948.8 1836.8 949.378 1836.62 949.832 1836.26C950.285 1835.9 950.621 1835.43 950.838 1834.84C951.056 1834.25 951.165 1833.62 951.165 1832.93C951.165 1832.25 951.056 1831.61 950.838 1831.02C950.621 1830.43 950.285 1829.95 949.832 1829.59C949.378 1829.22 948.8 1829.04 948.098 1829.04C947.396 1829.04 946.818 1829.22 946.365 1829.59C945.911 1829.95 945.576 1830.43 945.358 1831.02C945.14 1831.61 945.031 1832.25 945.031 1832.93C945.031 1833.62 945.14 1834.25 945.358 1834.84C945.576 1835.43 945.911 1835.9 946.365 1836.26C946.818 1836.62 947.396 1836.8 948.098 1836.8ZM961.595 1833.81V1827.76H963.168V1838H961.595V1836.27H961.488C961.248 1836.79 960.875 1837.23 960.368 1837.59C959.861 1837.95 959.221 1838.13 958.448 1838.13C957.808 1838.13 957.239 1837.99 956.741 1837.71C956.243 1837.43 955.852 1837 955.567 1836.43C955.283 1835.86 955.141 1835.14 955.141 1834.27V1827.76H956.714V1834.16C956.714 1834.91 956.923 1835.5 957.341 1835.95C957.763 1836.39 958.301 1836.61 958.954 1836.61C959.345 1836.61 959.743 1836.51 960.148 1836.31C960.557 1836.11 960.899 1835.81 961.175 1835.39C961.455 1834.98 961.595 1834.45 961.595 1833.81ZM970.184 1842.05C969.424 1842.05 968.77 1841.96 968.224 1841.76C967.677 1841.57 967.221 1841.32 966.857 1841C966.497 1840.69 966.21 1840.36 965.997 1840L967.25 1839.12C967.392 1839.31 967.573 1839.52 967.79 1839.76C968.008 1840 968.306 1840.22 968.684 1840.39C969.066 1840.58 969.566 1840.67 970.184 1840.67C971.011 1840.67 971.693 1840.47 972.231 1840.07C972.769 1839.67 973.038 1839.04 973.038 1838.19V1836.11H972.904C972.789 1836.29 972.624 1836.52 972.411 1836.8C972.202 1837.07 971.9 1837.31 971.504 1837.53C971.113 1837.74 970.584 1837.84 969.917 1837.84C969.09 1837.84 968.348 1837.64 967.69 1837.25C967.037 1836.86 966.519 1836.29 966.137 1835.55C965.759 1834.8 965.57 1833.89 965.57 1832.83C965.57 1831.78 965.755 1830.86 966.123 1830.09C966.492 1829.3 967.006 1828.7 967.664 1828.27C968.321 1827.84 969.082 1827.63 969.944 1827.63C970.611 1827.63 971.14 1827.74 971.531 1827.96C971.926 1828.18 972.229 1828.43 972.438 1828.71C972.651 1828.98 972.815 1829.21 972.931 1829.39H973.091V1827.76H974.611V1838.29C974.611 1839.17 974.411 1839.89 974.011 1840.44C973.615 1841 973.082 1841.4 972.411 1841.66C971.744 1841.92 971.002 1842.05 970.184 1842.05ZM970.131 1836.43C970.762 1836.43 971.295 1836.28 971.731 1835.99C972.166 1835.7 972.498 1835.29 972.724 1834.75C972.951 1834.2 973.064 1833.56 973.064 1832.8C973.064 1832.06 972.953 1831.41 972.731 1830.85C972.509 1830.28 972.18 1829.84 971.744 1829.52C971.308 1829.2 970.771 1829.04 970.131 1829.04C969.464 1829.04 968.908 1829.21 968.464 1829.55C968.024 1829.88 967.693 1830.34 967.47 1830.91C967.252 1831.47 967.144 1832.11 967.144 1832.8C967.144 1833.51 967.255 1834.14 967.477 1834.69C967.704 1835.23 968.037 1835.66 968.477 1835.97C968.922 1836.27 969.473 1836.43 970.131 1836.43ZM979.065 1831.84V1838H977.491V1824.35H979.065V1829.36H979.198C979.438 1828.83 979.798 1828.41 980.278 1828.1C980.763 1827.78 981.407 1827.63 982.212 1827.63C982.91 1827.63 983.521 1827.77 984.045 1828.05C984.57 1828.32 984.977 1828.75 985.266 1829.32C985.559 1829.89 985.706 1830.61 985.706 1831.49V1838H984.132V1831.6C984.132 1830.79 983.921 1830.16 983.499 1829.71C983.081 1829.26 982.501 1829.04 981.759 1829.04C981.243 1829.04 980.781 1829.15 980.372 1829.37C979.967 1829.58 979.647 1829.9 979.412 1830.32C979.18 1830.74 979.065 1831.24 979.065 1831.84ZM997.732 1838.21C996.879 1838.21 996.125 1838 995.472 1837.57C994.818 1837.13 994.307 1836.52 993.938 1835.73C993.569 1834.93 993.385 1833.99 993.385 1832.91C993.385 1831.83 993.569 1830.9 993.938 1830.11C994.307 1829.31 994.821 1828.7 995.478 1828.27C996.136 1827.84 996.896 1827.63 997.759 1827.63C998.425 1827.63 998.952 1827.74 999.339 1827.96C999.73 1828.18 1000.03 1828.43 1000.23 1828.71C1000.44 1828.98 1000.6 1829.21 1000.72 1829.39H1000.85V1824.35H1002.43V1838H1000.91V1836.43H1000.72C1000.6 1836.61 1000.44 1836.85 1000.23 1837.13C1000.01 1837.41 999.708 1837.66 999.312 1837.89C998.917 1838.1 998.39 1838.21 997.732 1838.21ZM997.945 1836.8C998.577 1836.8 999.11 1836.64 999.546 1836.31C999.981 1835.97 1000.31 1835.51 1000.54 1834.93C1000.77 1834.34 1000.88 1833.65 1000.88 1832.88C1000.88 1832.11 1000.77 1831.45 1000.55 1830.87C1000.32 1830.29 999.995 1829.85 999.559 1829.53C999.123 1829.2 998.585 1829.04 997.945 1829.04C997.279 1829.04 996.723 1829.21 996.279 1829.55C995.838 1829.89 995.507 1830.35 995.285 1830.93C995.067 1831.51 994.958 1832.16 994.958 1832.88C994.958 1833.61 995.07 1834.27 995.292 1834.87C995.518 1835.46 995.852 1835.93 996.292 1836.28C996.736 1836.63 997.288 1836.8 997.945 1836.8ZM1008.54 1838.24C1007.89 1838.24 1007.3 1838.12 1006.77 1837.87C1006.24 1837.62 1005.82 1837.27 1005.51 1836.8C1005.2 1836.33 1005.05 1835.76 1005.05 1835.09C1005.05 1834.51 1005.16 1834.03 1005.39 1833.67C1005.62 1833.3 1005.93 1833.01 1006.32 1832.8C1006.71 1832.59 1007.13 1832.43 1007.6 1832.33C1008.07 1832.23 1008.54 1832.14 1009.02 1832.08C1009.64 1832 1010.15 1831.94 1010.53 1831.9C1010.92 1831.85 1011.21 1831.78 1011.39 1831.68C1011.57 1831.58 1011.66 1831.4 1011.66 1831.15V1831.09C1011.66 1830.43 1011.48 1829.92 1011.12 1829.56C1010.76 1829.19 1010.22 1829.01 1009.5 1829.01C1008.75 1829.01 1008.16 1829.18 1007.73 1829.51C1007.31 1829.83 1007.01 1830.19 1006.83 1830.56L1005.34 1830.03C1005.61 1829.4 1005.96 1828.92 1006.41 1828.57C1006.86 1828.22 1007.34 1827.98 1007.87 1827.84C1008.41 1827.7 1008.93 1827.63 1009.45 1827.63C1009.78 1827.63 1010.15 1827.67 1010.58 1827.75C1011.01 1827.82 1011.43 1827.98 1011.83 1828.22C1012.23 1828.46 1012.57 1828.82 1012.83 1829.31C1013.1 1829.79 1013.23 1830.44 1013.23 1831.25V1838H1011.66V1836.61H1011.58C1011.47 1836.84 1011.3 1837.07 1011.05 1837.33C1010.8 1837.58 1010.47 1837.8 1010.05 1837.97C1009.64 1838.15 1009.14 1838.24 1008.54 1838.24ZM1008.78 1836.83C1009.4 1836.83 1009.93 1836.7 1010.35 1836.46C1010.78 1836.22 1011.11 1835.9 1011.33 1835.51C1011.55 1835.13 1011.66 1834.72 1011.66 1834.29V1832.85C1011.59 1832.93 1011.45 1833.01 1011.22 1833.07C1011 1833.14 1010.74 1833.19 1010.45 1833.24C1010.16 1833.28 1009.88 1833.32 1009.6 1833.36C1009.33 1833.39 1009.11 1833.42 1008.94 1833.44C1008.53 1833.49 1008.15 1833.58 1007.79 1833.7C1007.44 1833.82 1007.16 1833.99 1006.94 1834.23C1006.73 1834.46 1006.62 1834.77 1006.62 1835.17C1006.62 1835.72 1006.82 1836.13 1007.23 1836.41C1007.64 1836.69 1008.15 1836.83 1008.78 1836.83ZM1020.56 1827.76V1829.09H1015.25V1827.76H1020.56ZM1016.8 1825.31H1018.37V1835.07C1018.37 1835.51 1018.44 1835.84 1018.57 1836.07C1018.7 1836.28 1018.87 1836.43 1019.07 1836.51C1019.28 1836.58 1019.5 1836.61 1019.73 1836.61C1019.91 1836.61 1020.05 1836.6 1020.16 1836.59C1020.27 1836.56 1020.36 1836.55 1020.43 1836.53L1020.75 1837.95C1020.64 1837.99 1020.49 1838.03 1020.3 1838.07C1020.11 1838.11 1019.87 1838.13 1019.57 1838.13C1019.13 1838.13 1018.69 1838.04 1018.27 1837.85C1017.84 1837.66 1017.49 1837.36 1017.21 1836.97C1016.94 1836.58 1016.8 1836.09 1016.8 1835.49V1825.31ZM1025.94 1838.24C1025.29 1838.24 1024.7 1838.12 1024.17 1837.87C1023.64 1837.62 1023.22 1837.27 1022.91 1836.8C1022.6 1836.33 1022.45 1835.76 1022.45 1835.09C1022.45 1834.51 1022.56 1834.03 1022.79 1833.67C1023.02 1833.3 1023.33 1833.01 1023.72 1832.8C1024.11 1832.59 1024.53 1832.43 1025 1832.33C1025.47 1832.23 1025.94 1832.14 1026.42 1832.08C1027.04 1832 1027.55 1831.94 1027.93 1831.9C1028.32 1831.85 1028.61 1831.78 1028.79 1831.68C1028.97 1831.58 1029.06 1831.4 1029.06 1831.15V1831.09C1029.06 1830.43 1028.88 1829.92 1028.52 1829.56C1028.16 1829.19 1027.62 1829.01 1026.9 1829.01C1026.15 1829.01 1025.56 1829.18 1025.13 1829.51C1024.71 1829.83 1024.41 1830.19 1024.23 1830.56L1022.74 1830.03C1023.01 1829.4 1023.36 1828.92 1023.81 1828.57C1024.26 1828.22 1024.74 1827.98 1025.27 1827.84C1025.81 1827.7 1026.33 1827.63 1026.85 1827.63C1027.18 1827.63 1027.55 1827.67 1027.98 1827.75C1028.41 1827.82 1028.83 1827.98 1029.23 1828.22C1029.63 1828.46 1029.97 1828.82 1030.23 1829.31C1030.5 1829.79 1030.63 1830.44 1030.63 1831.25V1838H1029.06V1836.61H1028.98C1028.87 1836.84 1028.7 1837.07 1028.45 1837.33C1028.2 1837.58 1027.87 1837.8 1027.45 1837.97C1027.04 1838.15 1026.54 1838.24 1025.94 1838.24ZM1026.18 1836.83C1026.8 1836.83 1027.33 1836.7 1027.75 1836.46C1028.18 1836.22 1028.51 1835.9 1028.73 1835.51C1028.95 1835.13 1029.06 1834.72 1029.06 1834.29V1832.85C1028.99 1832.93 1028.85 1833.01 1028.62 1833.07C1028.4 1833.14 1028.14 1833.19 1027.85 1833.24C1027.56 1833.28 1027.28 1833.32 1027 1833.36C1026.73 1833.39 1026.51 1833.42 1026.34 1833.44C1025.93 1833.49 1025.55 1833.58 1025.19 1833.7C1024.84 1833.82 1024.56 1833.99 1024.34 1834.23C1024.13 1834.46 1024.02 1834.77 1024.02 1835.17C1024.02 1835.72 1024.22 1836.13 1024.63 1836.41C1025.04 1836.69 1025.55 1836.83 1026.18 1836.83Z" fill="#363636"/>
<path id="footer_website_url" d="M621.645 1867.17L618.551 1856.93H619.805L622.232 1865.38H622.319L624.739 1856.93H625.999L628.399 1865.36H628.493L630.92 1856.93H632.173L629.079 1867.17H627.852L625.426 1858.78H625.299L622.872 1867.17H621.645ZM639.945 1867.17L636.852 1856.93H638.105L640.532 1865.38H640.619L643.039 1856.93H644.299L646.699 1865.36H646.793L649.22 1856.93H650.473L647.38 1867.17H646.153L643.726 1858.78H643.599L641.172 1867.17H639.945ZM658.246 1867.17L655.152 1856.93H656.405L658.832 1865.38H658.919L661.339 1856.93H662.599L665 1865.36H665.093L667.52 1856.93H668.773L665.68 1867.17H664.453L662.026 1858.78H661.899L659.472 1867.17H658.246ZM673.825 1867.27C673.563 1867.27 673.337 1867.18 673.145 1866.99C672.959 1866.8 672.865 1866.57 672.865 1866.31C672.865 1866.04 672.959 1865.82 673.145 1865.63C673.337 1865.44 673.563 1865.35 673.825 1865.35C674.092 1865.35 674.319 1865.44 674.506 1865.63C674.692 1865.82 674.786 1866.04 674.786 1866.31C674.786 1866.48 674.741 1866.64 674.652 1866.79C674.568 1866.94 674.452 1867.06 674.306 1867.14C674.163 1867.23 674.003 1867.27 673.825 1867.27ZM685.093 1867.38C684.209 1867.38 683.426 1867.16 682.746 1866.71C682.071 1866.26 681.542 1865.64 681.159 1864.85C680.777 1864.05 680.586 1863.14 680.586 1862.1C680.586 1861.05 680.777 1860.13 681.159 1859.33C681.542 1858.53 682.071 1857.91 682.746 1857.46C683.426 1857.01 684.209 1856.79 685.093 1856.79C685.978 1856.79 686.758 1857.01 687.433 1857.46C688.109 1857.91 688.638 1858.53 689.02 1859.33C689.407 1860.13 689.6 1861.05 689.6 1862.1C689.6 1863.14 689.409 1864.05 689.027 1864.85C688.645 1865.64 688.114 1866.26 687.433 1866.71C686.758 1867.16 685.978 1867.38 685.093 1867.38ZM685.093 1866.3C685.804 1866.3 686.407 1866.11 686.9 1865.72C687.393 1865.34 687.767 1864.83 688.02 1864.2C688.278 1863.56 688.407 1862.86 688.407 1862.1C688.407 1861.33 688.278 1860.63 688.02 1859.99C687.767 1859.35 687.393 1858.84 686.9 1858.45C686.407 1858.06 685.804 1857.87 685.093 1857.87C684.386 1857.87 683.784 1858.06 683.286 1858.45C682.793 1858.84 682.417 1859.35 682.16 1859.99C681.906 1860.63 681.78 1861.33 681.78 1862.1C681.78 1862.86 681.906 1863.56 682.16 1864.2C682.417 1864.83 682.793 1865.34 683.286 1865.72C683.78 1866.11 684.382 1866.3 685.093 1866.3ZM701.905 1863.26V1856.93H703.092V1867.17H701.905V1865.47H701.812C701.572 1866 701.192 1866.43 700.671 1866.78C700.151 1867.13 699.516 1867.3 698.765 1867.3C698.111 1867.3 697.531 1867.16 697.024 1866.88C696.518 1866.59 696.12 1866.17 695.831 1865.61C695.542 1865.06 695.398 1864.37 695.398 1863.56V1856.93H696.584V1863.49C696.584 1864.29 696.82 1864.94 697.291 1865.42C697.762 1865.91 698.367 1866.15 699.105 1866.15C699.567 1866.15 700.011 1866.04 700.438 1865.82C700.865 1865.6 701.216 1865.27 701.492 1864.84C701.767 1864.41 701.905 1863.88 701.905 1863.26ZM709.426 1867.17V1856.93H710.579V1858.5H710.666C710.87 1857.99 711.226 1857.57 711.733 1857.26C712.244 1856.94 712.822 1856.78 713.466 1856.78C713.564 1856.78 713.673 1856.78 713.793 1856.78C713.913 1856.79 714.013 1856.79 714.093 1856.8V1858C714.039 1857.99 713.946 1857.98 713.813 1857.96C713.679 1857.95 713.535 1857.94 713.379 1857.94C712.846 1857.94 712.37 1858.05 711.953 1858.28C711.539 1858.5 711.212 1858.81 710.972 1859.2C710.732 1859.6 710.612 1860.05 710.612 1860.56V1867.17H709.426ZM720.497 1860.77V1867.17H719.31V1856.93H720.463V1858.54H720.57C720.81 1858.01 721.183 1857.59 721.69 1857.28C722.201 1856.96 722.832 1856.8 723.584 1856.8C724.273 1856.8 724.877 1856.94 725.397 1857.23C725.922 1857.51 726.328 1857.93 726.617 1858.49C726.911 1859.05 727.057 1859.73 727.057 1860.54V1867.17H725.871V1860.61C725.871 1859.77 725.635 1859.11 725.164 1858.62C724.697 1858.13 724.07 1857.88 723.284 1857.88C722.746 1857.88 722.268 1858 721.85 1858.23C721.432 1858.46 721.101 1858.79 720.857 1859.23C720.617 1859.66 720.497 1860.17 720.497 1860.77ZM733.388 1867.17V1856.93H734.581V1867.17H733.388ZM733.995 1855.17C733.75 1855.17 733.541 1855.09 733.368 1854.92C733.195 1854.75 733.108 1854.55 733.108 1854.32C733.108 1854.08 733.195 1853.88 733.368 1853.72C733.541 1853.55 733.75 1853.46 733.995 1853.46C734.239 1853.46 734.448 1853.55 734.621 1853.72C734.795 1853.88 734.881 1854.08 734.881 1854.32C734.881 1854.55 734.795 1854.75 734.621 1854.92C734.448 1855.09 734.239 1855.17 733.995 1855.17ZM744.819 1871.22C744.121 1871.22 743.51 1871.13 742.985 1870.95C742.461 1870.77 742.019 1870.53 741.659 1870.22C741.299 1869.91 741.019 1869.56 740.819 1869.17L741.792 1868.53C741.939 1868.79 742.134 1869.04 742.379 1869.29C742.628 1869.54 742.95 1869.75 743.346 1869.91C743.746 1870.08 744.237 1870.16 744.819 1870.16C745.726 1870.16 746.457 1869.93 747.013 1869.48C747.573 1869.02 747.853 1868.32 747.853 1867.36V1865.06H747.746C747.608 1865.37 747.41 1865.68 747.153 1865.99C746.895 1866.3 746.557 1866.55 746.139 1866.76C745.726 1866.96 745.212 1867.06 744.599 1867.06C743.781 1867.06 743.054 1866.86 742.419 1866.46C741.788 1866.05 741.29 1865.48 740.925 1864.72C740.565 1863.97 740.385 1863.07 740.385 1862.02C740.385 1860.99 740.561 1860.08 740.912 1859.29C741.268 1858.5 741.763 1857.89 742.399 1857.45C743.034 1857.01 743.774 1856.79 744.619 1856.79C745.246 1856.79 745.766 1856.9 746.179 1857.12C746.593 1857.34 746.924 1857.61 747.173 1857.94C747.426 1858.26 747.624 1858.58 747.766 1858.88H747.886V1856.93H749.046V1867.44C749.046 1868.3 748.862 1869.02 748.493 1869.58C748.124 1870.14 747.622 1870.55 746.986 1870.82C746.35 1871.09 745.628 1871.22 744.819 1871.22ZM744.739 1865.98C745.397 1865.98 745.959 1865.82 746.426 1865.5C746.893 1865.18 747.25 1864.73 747.499 1864.13C747.748 1863.53 747.873 1862.83 747.873 1862C747.873 1861.2 747.75 1860.49 747.506 1859.88C747.262 1859.25 746.906 1858.77 746.439 1858.41C745.977 1858.05 745.41 1857.87 744.739 1857.87C744.054 1857.87 743.477 1858.05 743.005 1858.42C742.534 1858.79 742.179 1859.29 741.939 1859.92C741.699 1860.54 741.579 1861.23 741.579 1862C741.579 1862.79 741.701 1863.48 741.945 1864.08C742.19 1864.67 742.548 1865.14 743.019 1865.48C743.49 1865.81 744.063 1865.98 744.739 1865.98ZM759.521 1867.38C758.565 1867.38 757.738 1867.16 757.04 1866.72C756.342 1866.27 755.802 1865.65 755.42 1864.86C755.042 1864.06 754.853 1863.15 754.853 1862.11C754.853 1861.08 755.042 1860.16 755.42 1859.36C755.802 1858.56 756.329 1857.93 757 1857.48C757.676 1857.02 758.456 1856.79 759.34 1856.79C759.896 1856.79 760.432 1856.89 760.947 1857.1C761.463 1857.3 761.925 1857.61 762.334 1858.02C762.748 1858.44 763.074 1858.96 763.314 1859.59C763.554 1860.22 763.674 1860.96 763.674 1861.82V1862.4H755.673V1861.36H762.461C762.461 1860.7 762.327 1860.11 762.061 1859.58C761.799 1859.05 761.432 1858.64 760.961 1858.33C760.494 1858.02 759.954 1857.87 759.34 1857.87C758.692 1857.87 758.12 1858.04 757.627 1858.39C757.134 1858.74 756.747 1859.19 756.467 1859.76C756.191 1860.33 756.051 1860.95 756.047 1861.63V1862.26C756.047 1863.07 756.187 1863.78 756.467 1864.39C756.751 1865 757.154 1865.46 757.674 1865.8C758.194 1866.13 758.809 1866.3 759.521 1866.3C760.005 1866.3 760.429 1866.22 760.794 1866.07C761.163 1865.92 761.472 1865.72 761.721 1865.46C761.974 1865.21 762.165 1864.92 762.294 1864.62L763.421 1864.98C763.265 1865.42 763.01 1865.81 762.654 1866.18C762.303 1866.54 761.863 1866.84 761.334 1867.06C760.81 1867.28 760.205 1867.38 759.521 1867.38ZM769.481 1867.17V1856.93H770.635V1858.5H770.722C770.926 1857.99 771.282 1857.57 771.788 1857.26C772.3 1856.94 772.877 1856.78 773.522 1856.78C773.62 1856.78 773.729 1856.78 773.849 1856.78C773.969 1856.79 774.069 1856.79 774.149 1856.8V1858C774.095 1857.99 774.002 1857.98 773.869 1857.96C773.735 1857.95 773.591 1857.94 773.435 1857.94C772.902 1857.94 772.426 1858.05 772.008 1858.28C771.595 1858.5 771.268 1858.81 771.028 1859.2C770.788 1859.6 770.668 1860.05 770.668 1860.56V1867.17H769.481ZM779.379 1867.17V1856.93H780.573V1867.17H779.379ZM779.986 1855.17C779.741 1855.17 779.532 1855.09 779.359 1854.92C779.186 1854.75 779.099 1854.55 779.099 1854.32C779.099 1854.08 779.186 1853.88 779.359 1853.72C779.532 1853.55 779.741 1853.46 779.986 1853.46C780.23 1853.46 780.439 1853.55 780.613 1853.72C780.786 1853.88 780.873 1854.08 780.873 1854.32C780.873 1854.55 780.786 1854.75 780.613 1854.92C780.439 1855.09 780.23 1855.17 779.986 1855.17ZM789.763 1867.4C789.146 1867.4 788.581 1867.28 788.07 1867.04C787.559 1866.8 787.152 1866.45 786.85 1865.99C786.547 1865.53 786.396 1864.97 786.396 1864.31C786.396 1863.8 786.492 1863.38 786.683 1863.03C786.874 1862.68 787.145 1862.4 787.496 1862.18C787.848 1861.95 788.263 1861.78 788.743 1861.65C789.223 1861.52 789.752 1861.42 790.33 1861.35C790.903 1861.28 791.388 1861.22 791.784 1861.16C792.184 1861.11 792.488 1861.03 792.697 1860.91C792.906 1860.79 793.01 1860.61 793.01 1860.35V1860.11C793.01 1859.41 792.801 1858.86 792.384 1858.46C791.97 1858.06 791.375 1857.86 790.597 1857.86C789.859 1857.86 789.257 1858.02 788.79 1858.34C788.328 1858.67 788.003 1859.05 787.816 1859.49L786.69 1859.08C786.921 1858.52 787.241 1858.08 787.65 1857.74C788.059 1857.41 788.517 1857.16 789.023 1857.02C789.53 1856.87 790.043 1856.79 790.563 1856.79C790.955 1856.79 791.361 1856.84 791.784 1856.94C792.21 1857.05 792.606 1857.22 792.97 1857.48C793.335 1857.73 793.63 1858.07 793.857 1858.52C794.084 1858.97 794.197 1859.53 794.197 1860.22V1867.17H793.01V1865.55H792.937C792.795 1865.85 792.584 1866.15 792.304 1866.43C792.024 1866.72 791.672 1866.95 791.25 1867.13C790.828 1867.31 790.332 1867.4 789.763 1867.4ZM789.923 1866.32C790.555 1866.32 791.101 1866.18 791.564 1865.9C792.026 1865.62 792.381 1865.25 792.63 1864.78C792.884 1864.32 793.01 1863.8 793.01 1863.24V1861.76C792.921 1861.85 792.773 1861.92 792.564 1861.99C792.359 1862.06 792.121 1862.12 791.85 1862.17C791.584 1862.22 791.317 1862.26 791.05 1862.3C790.783 1862.33 790.543 1862.36 790.33 1862.39C789.752 1862.46 789.259 1862.57 788.85 1862.72C788.441 1862.87 788.128 1863.08 787.91 1863.35C787.692 1863.61 787.583 1863.95 787.583 1864.36C787.583 1864.99 787.805 1865.47 788.25 1865.81C788.694 1866.15 789.252 1866.32 789.923 1866.32ZM801.493 1867.27C801.231 1867.27 801.004 1867.18 800.813 1866.99C800.626 1866.8 800.533 1866.57 800.533 1866.31C800.533 1866.04 800.626 1865.82 800.813 1865.63C801.004 1865.44 801.231 1865.35 801.493 1865.35C801.76 1865.35 801.986 1865.44 802.173 1865.63C802.36 1865.82 802.453 1866.04 802.453 1866.31C802.453 1866.48 802.408 1866.64 802.32 1866.79C802.235 1866.94 802.12 1867.06 801.973 1867.14C801.831 1867.23 801.671 1867.27 801.493 1867.27ZM809.967 1860.77V1867.17H808.78V1856.93H809.934V1858.54H810.04C810.28 1858.01 810.654 1857.59 811.16 1857.28C811.672 1856.96 812.303 1856.8 813.054 1856.8C813.743 1856.8 814.347 1856.94 814.867 1857.23C815.392 1857.51 815.799 1857.93 816.088 1858.49C816.381 1859.05 816.528 1859.73 816.528 1860.54V1867.17H815.341V1860.61C815.341 1859.77 815.105 1859.11 814.634 1858.62C814.167 1858.13 813.541 1857.88 812.754 1857.88C812.216 1857.88 811.738 1858 811.32 1858.23C810.903 1858.46 810.571 1858.79 810.327 1859.23C810.087 1859.66 809.967 1860.17 809.967 1860.77ZM826.752 1871.22C826.054 1871.22 825.443 1871.13 824.918 1870.95C824.394 1870.77 823.952 1870.53 823.592 1870.22C823.232 1869.91 822.952 1869.56 822.752 1869.17L823.725 1868.53C823.872 1868.79 824.067 1869.04 824.312 1869.29C824.561 1869.54 824.883 1869.75 825.278 1869.91C825.679 1870.08 826.17 1870.16 826.752 1870.16C827.659 1870.16 828.39 1869.93 828.946 1869.48C829.506 1869.02 829.786 1868.32 829.786 1867.36V1865.06H829.679C829.541 1865.37 829.343 1865.68 829.086 1865.99C828.828 1866.3 828.49 1866.55 828.072 1866.76C827.659 1866.96 827.145 1867.06 826.532 1867.06C825.714 1867.06 824.987 1866.86 824.352 1866.46C823.721 1866.05 823.223 1865.48 822.858 1864.72C822.498 1863.97 822.318 1863.07 822.318 1862.02C822.318 1860.99 822.494 1860.08 822.845 1859.29C823.2 1858.5 823.696 1857.89 824.332 1857.45C824.967 1857.01 825.707 1856.79 826.552 1856.79C827.179 1856.79 827.699 1856.9 828.112 1857.12C828.525 1857.34 828.857 1857.61 829.106 1857.94C829.359 1858.26 829.557 1858.58 829.699 1858.88H829.819V1856.93H830.979V1867.44C830.979 1868.3 830.795 1869.02 830.426 1869.58C830.057 1870.14 829.554 1870.55 828.919 1870.82C828.283 1871.09 827.561 1871.22 826.752 1871.22ZM826.672 1865.98C827.33 1865.98 827.892 1865.82 828.359 1865.5C828.826 1865.18 829.183 1864.73 829.432 1864.13C829.681 1863.53 829.806 1862.83 829.806 1862C829.806 1861.2 829.683 1860.49 829.439 1859.88C829.194 1859.25 828.839 1858.77 828.372 1858.41C827.91 1858.05 827.343 1857.87 826.672 1857.87C825.987 1857.87 825.41 1858.05 824.938 1858.42C824.467 1858.79 824.112 1859.29 823.872 1859.92C823.632 1860.54 823.512 1861.23 823.512 1862C823.512 1862.79 823.634 1863.48 823.878 1864.08C824.123 1864.67 824.481 1865.14 824.952 1865.48C825.423 1865.81 825.996 1865.98 826.672 1865.98Z" fill="#363636"/>
<text id="local_government_name" x="96" y="275" font-family="Inter, sans-serif" font-size="70" font-weight="bold" fill="#061510">{{LGA_NAME}}</text>
<text id="allocation_total_amount" x="493" y="395" font-family="Noto Sans, sans-serif" font-size="50" font-weight="800" fill="#39F7B7">{{TOTAL_AMOUNT}}</text>
<text id="allocation_period" x="75" y="458" font-family="Inter, sans-serif" font-size="22" font-weight="normal" fill="white">{{PERIOD}}</text>
<g id="allocation_subtitle_group">
<rect x="70" y="332.074" width="387" height="83" rx="6.97687" fill="#39F7B7"/>
<text id="allocation_subtitle" x="105" y="385" font-family="Inter, sans-serif" font-size="24" font-weight="600" fill="#061510">Had an allocation</text>
</g>
<rect id="allocation_type_pill_bg" width="484" height="105" rx="52.5" transform="matrix(1 0 0 -1 725 157)" fill="url(#gradient_type_pill)"/>
<text id="allocation_type_pill_text" x="840" y="127" font-family="Inter, sans-serif" font-size="48" font-weight="bold" fill="#F5FFFD" text-anchor="middle">FAAC</text>
<path id="header_decorative_pattern" fill-rule="evenodd" clip-rule="evenodd" d="M213.743 1640.69H217.563C218.971 1635.03 222.731 1632.48 225.359 1628.29L237.11 1627.37C237.476 1627.25 237.8 1627.05 238.156 1626.92C241.931 1625.56 248.94 1624.76 252.774 1621.57C254.214 1620.38 254.443 1620.23 255.923 1619.1C258.764 1616.93 260.372 1615.89 262.072 1612.27C265.217 1616.71 264.468 1618.83 269.163 1624.78C285.713 1625.35 273.656 1622.08 284.785 1620.48C289.444 1619.81 298.058 1620.43 303.362 1620.13C310.897 1611.55 302.883 1617.22 320.583 1615.81C331.363 1614.95 324.987 1611.51 339.312 1611.2C339.723 1601.95 334.905 1599.48 334.689 1590.87C336.65 1590.85 339.824 1590.64 341.68 1591.02C345.847 1591.87 343.605 1591.83 346.389 1593.38C351.079 1596.01 350.961 1595.31 357.449 1595.21C380.849 1594.86 370.969 1596.03 379.373 1598.92C384.943 1600.83 404.949 1601.58 411.414 1597.73C415.984 1595.01 417.884 1593.85 420.632 1589.39C419.15 1583.62 415.243 1581.93 412.777 1576.56L416.139 1573.87C422.49 1568.75 427.618 1566.98 434.331 1563.61C434.333 1563.61 437.89 1561.41 437.903 1561.4C447.65 1554.4 448.511 1558.93 456.747 1554.76C461.633 1552.29 459.908 1552.9 467.176 1552.87C475.981 1552.83 478.849 1554.33 486.405 1558.04C486.844 1565.03 485.705 1563.99 485.234 1564.89L472.064 1575.48C463.911 1582.4 470.907 1592.34 475.781 1599.05C510.239 1603.74 487.824 1605.44 515.76 1599.6L568.754 1581.11C575.261 1577.37 577.865 1574.38 579.045 1565.57L612.576 1565.49C622.139 1567.46 609.268 1569.28 623.825 1570.05C646.278 1571.25 636.857 1565.42 649.49 1565.37C673.684 1565.27 661.518 1561.61 673.724 1561.18C678.135 1561.02 683.537 1561.33 688.099 1561.33C694.353 1558.25 689.618 1557.53 695.663 1556.39C706.603 1554.31 713.94 1556.81 719.614 1542.36C715.719 1534.36 709.857 1533.25 704.855 1527.08L698.79 1520.22C698.53 1520.05 698.143 1519.86 697.879 1519.69C697.616 1519.52 697.224 1519.34 696.964 1519.18C693.868 1517.17 696.504 1519.33 694.483 1517.49C690.648 1514 689.238 1509.36 687.301 1504.78C682.207 1492.71 689.565 1494.18 695.056 1486.79L685.937 1463.26C682.219 1452.97 680.208 1447.85 679.124 1437.01C678.364 1429.39 674.561 1430.91 676.313 1425.12C679.381 1414.99 693.105 1400.57 694.782 1395.59C692.127 1392.29 685.774 1389.71 683.542 1385.87C675.702 1372.39 696.318 1372.32 674.294 1355.06C662.954 1346.18 661.943 1329.46 656.641 1324.36C649.128 1317.13 647.463 1318.22 639.651 1318.24C635.084 1312.98 639.108 1313.35 631.181 1312.96C607.442 1311.77 629.757 1310 606.851 1308.97C596.543 1308.51 603.683 1307.5 596.661 1305.76C591.26 1304.42 588.488 1306.57 583.837 1304.5C579.044 1302.37 584.824 1301.64 574.191 1300.96C556.281 1299.81 569.116 1304.9 551.317 1305.24C540.84 1305.43 545.384 1306.64 539.462 1308.21C533.172 1309.88 508.029 1310.22 501.838 1306.86C494.091 1302.64 490.006 1300.97 487.216 1293.04C482.203 1278.8 485.356 1287.22 488.038 1272.3L502.716 1265.88C517.27 1257.29 515.81 1255.3 527.093 1245.99C536.236 1238.45 531.411 1215.88 536.24 1205.32C539.248 1198.75 536.96 1199.1 538.328 1192.05C542.92 1168.39 569.299 1145.4 554.263 1120.54C551.875 1116.59 549.59 1115.61 547.524 1110.05C545.595 1104.86 546.17 1102.73 541.329 1100.21L532.779 1112.47C513.326 1113.45 524.12 1108.16 508.585 1108.5C492.244 1108.84 501.133 1105.86 491.449 1104.39C489.121 1104.04 486.718 1104.59 484.536 1104.27C474.151 1102.73 487.561 1101.58 474.363 1100.13C460.865 1098.66 471.162 1100.37 463.518 1096.98C455.069 1093.22 461.889 1099.53 448.832 1090.69C448.788 1090.66 446.404 1089.24 446.026 1089.07C445.696 1088.91 445.33 1088.75 444.987 1088.61L430.058 1080.74C429.105 1080.09 431.739 1078.85 424.456 1078.59C412.312 1078.15 423.088 1080.88 414.13 1082.86C411.654 1083.41 409.817 1082.85 407.381 1083.15C398.428 1084.24 406.402 1082.64 401.918 1085.12C397.646 1087.48 405.163 1086 397.218 1087.14C394.632 1087.51 392.935 1086.94 390.386 1087.48C379.966 1089.72 391.802 1090.41 380.271 1091.55C377.003 1091.88 377.104 1091.26 373.57 1092.21C366.034 1094.24 380.39 1089.8 370.454 1093.52C365.624 1095.33 361.248 1094.84 355.506 1094.67L353.235 1099.92C342.444 1100.24 340.35 1095.21 332.213 1090.46L312.982 1078.16C287.206 1060.43 299.244 1064.57 284.48 1045.34C278.083 1037 280.216 1031.18 280.21 1017.98C280.197 983.562 282.576 970.377 266.347 940.827C259.094 940.397 247.61 942.235 241.435 940.168C237.08 938.71 240.796 937.248 230.757 936.994C226.977 936.898 222.647 937.336 218.662 937.291C217.967 933.981 220.005 924.222 221.154 921.314C223.082 916.435 222.887 920.592 223.562 913.922L226.488 896.887C229.874 878.887 229.071 894.427 229.635 869.698C229.86 859.844 232.442 863.246 232.763 852.775L232.742 812.615C231.288 793.462 209.483 798.347 204.632 802.412C204.249 802.732 200.842 807.777 199.875 809.083C190.843 821.281 201.073 818.033 200.828 831.255C200.599 843.641 201.931 838.796 204.061 846.22C206.041 853.121 202.796 854.192 200.879 860.153C198.402 867.853 196.813 877.798 193.352 885.554C193.228 885.832 193.045 886.205 192.906 886.466C192.771 886.72 192.543 887.068 192.395 887.307C192.249 887.544 191.983 887.867 191.826 888.094C189.919 890.855 190.698 889.389 189.373 891.229C189.197 891.474 188.962 891.826 188.787 892.074C188.61 892.327 188.394 892.694 188.217 892.947L185.787 896.256C185.52 896.573 184.708 897.431 184.431 897.731C178.785 903.822 177.446 900.972 170.02 905.949C169.768 906.119 169.429 906.355 169.171 906.518L160.55 911.111C158.717 922.569 163.184 947.848 158.419 957.213C158.288 957.47 158.043 957.805 157.907 958.063C155.035 963.488 152.061 972.806 147.53 975.971L128.986 983.784C128.564 988.472 128.159 993.107 129.644 997.552L132.123 1005.2C132.926 1009.47 132.818 1011.75 138.099 1012.53L149.441 1012.47C154.555 1011.39 152.528 1009.86 156.987 1008.52C161.521 1007.16 167.303 1008.07 171.961 1008.39C172.71 1009.28 176.161 1013.62 176.894 1014.72C178.608 1017.29 179.549 1019.05 178.993 1023.5C178.213 1029.76 178.116 1026.05 176.444 1029.33C174.582 1032.98 174.953 1036.14 174.703 1040.41L168.39 1044.06C166.553 1045.52 167.617 1044.35 165.677 1047.15C163.001 1051.01 157.284 1056.54 156.42 1060.73C155.303 1066.15 159.675 1076.04 162.686 1080.28C166.558 1085.74 173.232 1085.27 175.876 1090.66C177.384 1097.95 169.575 1100.42 170.425 1110.25C171.066 1117.65 172.316 1108.61 171.61 1117.73C168.574 1119.79 167.039 1119.67 164.715 1121.55C155.83 1128.74 155.877 1129.33 141.355 1129.63C139.784 1134.56 139.903 1131.85 137.932 1136.37C136.865 1138.82 136.293 1141.81 135.238 1143.74C132.342 1149.03 131.004 1148.66 128.067 1156.72C127.458 1158.39 125.697 1160.61 124.33 1162.45C120.264 1167.93 117.927 1175.99 115.022 1181.89C112.863 1186.28 109.077 1189.82 107.57 1194.8L104.544 1202.6C104.388 1202.9 104.174 1203.26 104.022 1203.57C101.217 1209.36 99.9537 1217.31 98.2346 1223.72C97.4699 1226.57 97.5904 1228.96 96.7628 1232.2C95.7869 1236.01 92.224 1237.36 97.585 1242.37L106.586 1248.82C106.948 1252.46 106.68 1254.84 107.549 1258.16C108.901 1263.33 108.671 1256.56 109.722 1264.5C106.354 1270.86 102.21 1273.01 98.7005 1279.37L94.9687 1288.59C93.8407 1291.74 93.2205 1294.27 91.6235 1298.03C86.8712 1309.19 85.692 1323.43 91.2481 1335.8C92.4922 1338.56 91.6576 1337.26 93.0153 1339.6L102.101 1356.07C114.222 1371.76 105.852 1388.07 112.656 1395.3C117.237 1400.17 115.411 1396.47 119.979 1400.92C122.764 1403.63 122.18 1404.29 125.242 1406.79C133.172 1404.29 137.468 1396.74 144.151 1391.89C146.284 1390.35 146.979 1389.66 149.045 1387.99C155.781 1382.54 156.177 1385.38 162.292 1377.52C166.621 1377.19 167.884 1377.81 171.518 1376.29C173.325 1375.53 173.01 1374.55 176.541 1373.05L189.704 1381.67L189.743 1378.78C194.254 1383.45 200.051 1387.91 207.392 1392.13C198.014 1391.65 195.882 1386.59 190.181 1393.81L176.324 1406.8C176.119 1407.01 175.854 1407.34 175.648 1407.55L174.23 1408.93C157.79 1423.54 161.959 1423.73 150.195 1437.65C137.793 1452.33 152.337 1448.46 160.881 1470.93C165.668 1483.53 174.45 1492.58 175.937 1496.77C171.552 1501.46 171.204 1495.7 167.793 1502.68C164.342 1509.74 168.654 1518.85 163.592 1525.16C161.048 1528.33 159.436 1529.12 156.584 1530.87C156.014 1540.56 153.724 1543.36 153.279 1553.77C152.889 1562.88 152.123 1557.95 150.837 1564C149.958 1568.14 150.865 1570.5 150.001 1574.57C148.916 1579.68 147.753 1577.07 147.323 1585.01C145.731 1614.47 146.139 1610.81 159.442 1611.69C163.861 1619.54 159.885 1613.29 166.35 1617.89C167.595 1633.12 161.932 1633.61 179.352 1633.41C201.438 1633.16 194.116 1627.51 200.766 1628.17C204.835 1628.58 212.737 1636.7 213.743 1640.69L213.743 1640.69Z" fill="white" fill-opacity="0.08"/>
<g id="chart_emblem_group" clip-path="url(#clip_emblem)">
<g id="chart_emblem_inner">
<path id="chart_emblem_icon" fill-rule="evenodd" clip-rule="evenodd" d="M268.906 1306.12C269.548 1306.44 273.457 1308.82 273.957 1309.31C275.698 1311.05 276.865 1308.98 276.315 1314.88C275.832 1320.08 271.381 1320.78 266.147 1320.34C277.332 1333 273.081 1338.56 273.657 1343.75C280.341 1349 284.083 1346.45 291.333 1352.2C293.008 1363.91 289.883 1359.25 288.725 1366.81C289.916 1368.26 291.158 1370.04 292.6 1371.39C297.026 1375.54 296.317 1372.06 297.459 1377.22C299.184 1385.04 292.842 1384.34 288.658 1386.99C289.175 1392.36 290.683 1392.89 294.334 1396.56C301.209 1396.19 303.118 1393.96 310.185 1396.35C312.485 1392.76 312.527 1391.6 316.011 1388.72C320.136 1390.52 320.544 1390.2 324.437 1392.91C328.079 1395.44 328.337 1396.89 334.029 1396.52C338.155 1396.25 354.531 1393.3 357.448 1392.31L357.365 1378.06C362.165 1378.18 365.641 1380.32 366.782 1376.91C359.89 1375.11 355.348 1379.55 355.665 1370.65C359.757 1369.76 372.15 1370.21 377.925 1369.97C387.434 1369.57 394.027 1367.76 401.227 1367.2C417.421 1365.91 432.647 1374.32 445.79 1375.52C453.233 1363.8 452.449 1359.35 467.492 1353.99C475.218 1351.24 479.385 1352.68 487.378 1351.91C494.912 1351.2 494.737 1347.07 495.537 1339.44C489.986 1333.59 482.719 1333.16 479.694 1325.53C474.776 1313.13 478.96 1311.06 471.884 1303.1C462.909 1293.01 443.023 1281.83 433.639 1279.55C416.846 1275.46 425.672 1283.39 411.729 1271.1C394.402 1255.83 391.543 1267.95 382.692 1270.88C368.458 1275.6 371.35 1271.7 346.805 1282.26C345.505 1298.38 363.324 1292.84 363.149 1310.82C356.148 1309.88 351.056 1304.4 343.472 1301.93C335.613 1299.37 326.445 1300.64 317.478 1299.42C305.935 1297.84 308.052 1294.46 292.892 1294.97C282.874 1295.32 275.698 1292.63 266.331 1294.05C267.356 1298.02 267.306 1303.8 268.906 1306.11V1306.12Z" fill="#B2FFE6"/>
</g>
</g>
<text id="chart_region_label" x="580" y="1523" font-family="Inter, sans-serif" font-size="18" font-weight="normal" fill="#B2FFE6" text-anchor="middle">{{STATE_NAME}}</text>
<path id="chart_slice_1" d="M1002.7 809.814C1022.24 857.667 1033 910.03 1033 964.907C1033 1026.46 1019.46 1084.84 995.192 1137.25L708.677 1025.81C720.843 1008.6 727.991 987.588 727.991 964.907C727.991 956.071 726.905 947.489 724.861 939.286L1002.7 809.814Z" fill="#C0CAFD"/>
<path id="chart_slice_2" d="M885.841 1276.75C839.18 1316.79 783.429 1346.53 722.108 1362.46C716.188 1364 710.138 1360.66 708.109 1354.89L607.949 1070.1C611.438 1070.44 614.977 1070.62 618.557 1070.62C625.874 1070.62 633.016 1069.88 639.914 1068.46L885.841 1276.75Z" fill="#FDC0C0"/>
<path id="chart_slice_3" d="M631.338 554.508C793.549 559.467 932.085 658.496 994.242 798.884L717.498 927.845C705.755 896.565 679.605 872.333 647.129 863.231L631.338 554.508Z" fill="#F7FF8F"/>
<path id="chart_slice_4" d="M619.369 554.315L635.035 860.6C629.666 859.759 624.163 859.321 618.557 859.321C572.455 859.321 533.251 888.851 518.825 930.026C518.742 930.261 518.501 930.403 518.256 930.357C518.202 930.347 518.151 930.329 518.103 930.302L272.647 793.899C260.487 787.142 255.727 771.957 262.684 759.909C333.651 637.016 466.446 554.313 618.557 554.313C618.828 554.313 619.099 554.314 619.369 554.315Z" fill="#39F7B7"/>
<path id="chart_slice_5" d="M986.217 1148.11C963.397 1193.84 932.299 1234.71 894.885 1268.76L653.822 1064.59C670.592 1058.66 685.414 1048.61 697.08 1035.65L986.217 1148.11Z" fill="white"/>
<text id="legend_label_1" x="361" y="733" font-family="Inter, sans-serif" font-size="22" font-weight="600" fill="#061510">{{LABEL_1}}</text>
<text id="legend_label_2" x="703" y="703" font-family="Inter, sans-serif" font-size="20" font-weight="600" fill="#061510">{{LABEL_2}}</text>
<text id="legend_label_3" x="820" y="940" font-family="Inter, sans-serif" font-size="20" font-weight="600" fill="#061510">{{LABEL_3}}</text>
<text id="legend_label_4" x="833" y="1133" font-family="Inter, sans-serif" font-size="16" font-weight="600" fill="#061510">{{LABEL_4}}</text>
<text id="legend_label_5" x="738" y="1250" font-family="Inter, sans-serif" font-size="16" font-weight="600" fill="#061510">{{LABEL_5}}</text>
<text id="legend_amount_1" x="374" y="790" font-family="Noto Sans, sans-serif" font-size="38" font-weight="bold" fill="#061510">{{AMOUNT_1}}</text>
<text id="legend_amount_2" x="682" y="780" font-family="Noto Sans, sans-serif" font-size="38" font-weight="bold" fill="#061510">{{AMOUNT_2}}</text>
<text id="legend_amount_3" x="799" y="1017" font-family="Noto Sans, sans-serif" font-size="38" font-weight="bold" fill="#061510">{{AMOUNT_3}}</text>
<text id="legend_amount_4" x="796" y="1173" font-family="Noto Sans, sans-serif" font-size="30" font-weight="bold" fill="#061510">{{AMOUNT_4}}</text>
<text id="legend_amount_5" x="700" y="1290" font-family="Noto Sans, sans-serif" font-size="30" font-weight="bold" fill="#061510">{{AMOUNT_5}}</text>
</g>
<defs>
<linearGradient id="gradient_type_pill" x1="-51.0537" y1="48.4324" x2="79.3819" y2="-139.779" gradientUnits="userSpaceOnUse">
<stop stop-color="#029968"/>
<stop offset="1" stop-color="#013323" stop-opacity="0"/>
</linearGradient>
<clipPath id="clip_story_frame">
<rect width="1080" height="1920" fill="white"/>
</clipPath>
<clipPath id="clip_emblem">
<rect width="229.398" height="133.032" fill="white" transform="translate(266.138 1263.54)"/>
</clipPath>
</defs>
</svg>
